{"glyphs":{"0":{"ha":2254,"x_min":0,"x_max":0,"o":"m 1858 957 b 1854 981 1858 965 1857 974 l 475 82 l 1685 82 b 1711 88 1693 82 1703 83 b 1735 103 1721 90 1729 96 l 1838 204 b 1853 228 1844 211 1849 219 b 1858 256 1857 238 1858 246 m 396 154 b 400 131 396 146 397 138 l 1779 1029 l 469 1029 b 418 1008 450 1029 432 1022 b 396 957 404 994 396 976 m 1894 1067 b 1940 957 1924 1038 1940 999 l 1940 256 b 1928 197 1940 236 1936 215 b 1894 147 1921 178 1910 161 l 1793 44 b 1743 11 1779 31 1761 19 b 1685 0 1724 4 1704 0 l 469 0 b 360 44 428 0 389 17 b 315 154 331 74 315 113 l 315 957 b 360 1067 315 999 331 1038 b 469 1111 389 1094 428 1111 l 1786 1111 b 1894 1067 1826 1111 1865 1094 "},"1":{"ha":2254,"x_min":0,"x_max":0,"o":"m 469 122 b 446 132 460 122 453 125 b 438 154 440 138 438 146 l 438 957 b 446 979 438 965 440 974 b 469 989 453 986 460 989 l 1786 989 b 1808 979 1794 989 1803 986 b 1818 957 1814 974 1818 965 l 1818 256 b 1815 243 1818 251 1817 247 b 1808 233 1814 240 1811 236 l 1707 132 b 1696 125 1704 129 1700 126 b 1685 122 1692 124 1689 122 m 469 0 b 360 44 428 0 389 17 b 315 154 331 74 315 113 l 315 957 b 360 1067 315 999 331 1038 b 469 1111 389 1094 428 1111 l 1786 1111 b 1894 1067 1826 1111 1865 1094 b 1940 957 1924 1038 1940 999 l 1940 256 b 1928 197 1940 236 1936 215 b 1894 147 1921 178 1910 161 l 1793 44 b 1743 11 1779 31 1761 19 b 1685 0 1724 4 1704 0 m 1685 82 b 1711 88 1693 82 1703 83 b 1735 103 1721 90 1729 96 l 1838 204 b 1853 228 1844 211 1849 219 b 1858 256 1857 238 1858 246 l 1858 957 b 1838 1008 1858 976 1851 994 b 1786 1029 1824 1022 1806 1029 l 469 1029 b 418 1008 450 1029 432 1022 b 396 957 404 994 396 976 l 396 154 b 418 103 396 135 404 117 b 469 82 432 89 450 82 "},"2":{"ha":2254,"x_min":0,"x_max":0,"o":"m 446 979 b 438 957 440 974 438 965 l 438 154 b 446 132 438 146 440 138 b 469 122 453 125 460 122 l 1086 122 l 1086 989 l 469 989 b 446 979 460 989 453 986 m 1808 979 b 1786 989 1803 986 1794 989 l 1168 989 l 1168 122 l 1685 122 b 1696 125 1689 122 1692 124 b 1707 132 1700 126 1704 129 l 1808 233 b 1815 243 1811 236 1814 240 b 1818 256 1817 247 1818 251 l 1818 957 b 1808 979 1818 965 1814 974 m 469 0 b 360 44 428 0 389 17 b 315 154 331 74 315 113 l 315 957 b 360 1067 315 999 331 1038 b 469 1111 389 1094 428 1111 l 1786 1111 b 1894 1067 1826 1111 1865 1094 b 1940 957 1924 1038 1940 999 l 1940 256 b 1928 197 1940 236 1936 215 b 1894 147 1921 178 1910 161 l 1793 44 b 1743 11 1779 31 1761 19 b 1685 0 1724 4 1704 0 m 1685 82 b 1711 88 1693 82 1703 83 b 1735 103 1721 90 1729 96 l 1838 204 b 1853 228 1844 211 1849 219 b 1858 256 1857 238 1858 246 l 1858 957 b 1838 1008 1858 976 1851 994 b 1786 1029 1824 1022 1806 1029 l 469 1029 b 418 1008 450 1029 432 1022 b 396 957 404 994 396 976 l 396 154 b 418 103 396 135 404 117 b 469 82 432 89 450 82 "},"3":{"ha":2254,"x_min":0,"x_max":0,"o":"m 438 451 l 1818 451 l 1818 660 l 438 660 m 438 154 b 446 132 438 146 440 138 b 469 122 453 125 460 122 l 1685 122 b 1696 125 1689 122 1692 124 b 1707 132 1700 126 1704 129 l 1808 233 b 1815 243 1811 236 1814 240 b 1818 256 1817 247 1818 251 l 1818 371 l 438 371 m 1808 979 b 1786 989 1803 986 1794 989 l 469 989 b 446 979 460 989 453 986 b 438 957 440 974 438 965 l 438 740 l 1818 740 l 1818 957 b 1808 979 1818 965 1814 974 m 469 0 b 360 44 428 0 389 17 b 315 154 331 74 315 113 l 315 957 b 360 1067 315 999 331 1038 b 469 1111 389 1094 428 1111 l 1786 1111 b 1894 1067 1826 1111 1865 1094 b 1940 957 1924 1038 1940 999 l 1940 256 b 1928 197 1940 236 1936 215 b 1894 147 1921 178 1910 161 l 1793 44 b 1743 11 1779 31 1761 19 b 1685 0 1724 4 1704 0 m 1685 82 b 1711 88 1693 82 1703 83 b 1735 103 1721 90 1729 96 l 1838 204 b 1853 228 1844 211 1849 219 b 1858 256 1857 238 1858 246 l 1858 957 b 1838 1008 1858 976 1851 994 b 1786 1029 1824 1022 1806 1029 l 469 1029 b 418 1008 450 1029 432 1022 b 396 957 404 994 396 976 l 396 154 b 418 103 396 135 404 117 b 469 82 432 89 450 82 "},"4":{"ha":2254,"x_min":0,"x_max":0,"o":"m 438 154 b 446 132 438 146 440 138 b 469 122 453 125 460 122 l 1086 122 l 1086 515 l 438 515 m 446 979 b 438 957 440 974 438 965 l 438 596 l 1086 596 l 1086 989 l 469 989 b 446 979 460 989 453 986 m 1168 122 l 1685 122 b 1696 125 1689 122 1692 124 b 1707 132 1700 126 1704 129 l 1808 233 b 1815 243 1811 236 1814 240 b 1818 256 1817 247 1818 251 l 1818 515 l 1168 515 m 1808 979 b 1786 989 1803 986 1794 989 l 1168 989 l 1168 596 l 1818 596 l 1818 957 b 1808 979 1818 965 1814 974 m 469 0 b 360 44 428 0 389 17 b 315 154 331 74 315 113 l 315 957 b 360 1067 315 999 331 1038 b 469 1111 389 1094 428 1111 l 1786 1111 b 1894 1067 1826 1111 1865 1094 b 1940 957 1924 1038 1940 999 l 1940 256 b 1928 197 1940 236 1936 215 b 1894 147 1921 178 1910 161 l 1793 44 b 1743 11 1779 31 1761 19 b 1685 0 1724 4 1704 0 m 1685 82 b 1711 88 1693 82 1703 83 b 1735 103 1721 90 1729 96 l 1838 204 b 1853 228 1844 211 1849 219 b 1858 256 1857 238 1858 246 l 1858 957 b 1838 1008 1858 976 1851 994 b 1786 1029 1824 1022 1806 1029 l 469 1029 b 418 1008 450 1029 432 1022 b 396 957 404 994 396 976 l 396 154 b 418 103 396 135 404 117 b 469 82 432 89 450 82 "},"5":{"ha":2254,"x_min":0,"x_max":0,"o":"m 446 979 b 438 957 440 974 438 965 l 438 607 l 829 607 l 829 989 l 469 989 b 446 979 460 989 453 986 m 911 607 l 1304 607 l 1304 989 l 911 989 m 438 154 b 446 132 438 146 440 138 b 469 122 453 125 460 122 l 829 122 l 829 504 l 438 504 m 911 122 l 1304 122 l 1304 504 l 911 504 m 1808 979 b 1786 989 1803 986 1794 989 l 1385 989 l 1385 122 l 1685 122 b 1696 125 1689 122 1692 124 b 1707 132 1700 126 1704 129 l 1808 233 b 1815 243 1811 236 1814 240 b 1818 256 1817 247 1818 251 l 1818 957 b 1808 979 1818 965 1814 974 m 469 0 b 360 44 428 0 389 17 b 315 154 331 74 315 113 l 315 957 b 360 1067 315 999 331 1038 b 469 1111 389 1094 428 1111 l 1786 1111 b 1894 1067 1826 1111 1865 1094 b 1940 957 1924 1038 1940 999 l 1940 256 b 1928 197 1940 236 1936 215 b 1894 147 1921 178 1910 161 l 1793 44 b 1743 11 1779 31 1761 19 b 1685 0 1724 4 1704 0 m 1685 82 b 1711 88 1693 82 1703 83 b 1735 103 1721 90 1729 96 l 1838 204 b 1853 228 1844 211 1849 219 b 1858 256 1857 238 1858 246 l 1858 957 b 1838 1008 1858 976 1851 994 b 1786 1029 1824 1022 1806 1029 l 469 1029 b 418 1008 450 1029 432 1022 b 396 957 404 994 396 976 l 396 154 b 418 103 396 135 404 117 b 469 82 432 89 450 82 "},"6":{"ha":2254,"x_min":0,"x_max":0,"o":"m 446 979 b 438 957 440 974 438 965 l 438 596 l 857 596 l 857 989 l 469 989 b 446 979 460 989 453 986 m 438 154 b 446 132 438 146 440 138 b 469 122 453 125 460 122 l 857 122 l 857 515 l 438 515 m 938 596 l 1317 596 l 1317 989 l 938 989 m 1808 979 b 1786 989 1803 986 1794 989 l 1399 989 l 1399 596 l 1818 596 l 1818 957 b 1808 979 1818 965 1814 974 m 938 122 l 1317 122 l 1317 515 l 938 515 m 1399 122 l 1685 122 b 1696 125 1689 122 1692 124 b 1707 132 1700 126 1704 129 l 1808 233 b 1815 243 1811 236 1814 240 b 1818 256 1817 247 1818 251 l 1818 515 l 1399 515 m 469 0 b 360 44 428 0 389 17 b 315 154 331 74 315 113 l 315 957 b 360 1067 315 999 331 1038 b 469 1111 389 1094 428 1111 l 1786 1111 b 1894 1067 1826 1111 1865 1094 b 1940 957 1924 1038 1940 999 l 1940 256 b 1928 197 1940 236 1936 215 b 1894 147 1921 178 1910 161 l 1793 44 b 1743 11 1779 31 1761 19 b 1685 0 1724 4 1704 0 m 1685 82 b 1711 88 1693 82 1703 83 b 1735 103 1721 90 1729 96 l 1838 204 b 1853 228 1844 211 1849 219 b 1858 256 1857 238 1858 246 l 1858 957 b 1838 1008 1858 976 1851 994 b 1786 1029 1824 1022 1806 1029 l 469 1029 b 418 1008 450 1029 432 1022 b 396 957 404 994 396 976 l 396 154 b 418 103 396 135 404 117 b 469 82 432 89 450 82 "},"7":{"ha":2254,"x_min":0,"x_max":0,"o":"m 446 979 b 438 957 440 974 438 965 l 438 740 l 685 740 l 685 989 l 469 989 b 446 979 460 989 453 986 m 767 740 l 1015 740 l 1015 989 l 767 989 m 438 451 l 685 451 l 685 660 l 438 660 m 767 451 l 1015 451 l 1015 660 l 767 660 m 438 154 b 446 132 438 146 440 138 b 469 122 453 125 460 122 l 685 122 l 685 371 l 438 371 m 1808 979 b 1786 989 1803 986 1794 989 l 1096 989 l 1096 122 l 1685 122 b 1696 125 1689 122 1692 124 b 1707 132 1700 126 1704 129 l 1808 233 b 1815 243 1811 236 1814 240 b 1818 256 1817 247 1818 251 l 1818 957 b 1808 979 1818 965 1814 974 m 767 122 l 1015 122 l 1015 371 l 767 371 m 469 0 b 360 44 428 0 389 17 b 315 154 331 74 315 113 l 315 957 b 360 1067 315 999 331 1038 b 469 1111 389 1094 428 1111 l 1786 1111 b 1894 1067 1826 1111 1865 1094 b 1940 957 1924 1038 1940 999 l 1940 256 b 1928 197 1940 236 1936 215 b 1894 147 1921 178 1910 161 l 1793 44 b 1743 11 1779 31 1761 19 b 1685 0 1724 4 1704 0 m 1685 82 b 1711 88 1693 82 1703 83 b 1735 103 1721 90 1729 96 l 1838 204 b 1853 228 1844 211 1849 219 b 1858 256 1857 238 1858 246 l 1858 957 b 1838 1008 1858 976 1851 994 b 1786 1029 1824 1022 1806 1029 l 469 1029 b 418 1008 450 1029 432 1022 b 396 957 404 994 396 976 l 396 154 b 418 103 396 135 404 117 b 469 82 432 89 450 82 "},"8":{"ha":2254,"x_min":0,"x_max":0,"o":"m 1168 596 l 1453 596 l 1453 989 l 1168 989 m 438 154 b 446 132 438 146 440 138 b 469 122 453 125 460 122 l 721 122 l 721 515 l 438 515 m 446 979 b 438 957 440 974 438 965 l 438 596 l 721 596 l 721 989 l 469 989 b 446 979 460 989 453 986 m 803 596 l 1086 596 l 1086 989 l 803 989 m 803 122 l 1086 122 l 1086 515 l 803 515 m 1808 979 b 1786 989 1803 986 1794 989 l 1533 989 l 1533 596 l 1818 596 l 1818 957 b 1808 979 1818 965 1814 974 m 1168 122 l 1453 122 l 1453 515 l 1168 515 m 1533 122 l 1685 122 b 1696 125 1689 122 1692 124 b 1707 132 1700 126 1704 129 l 1808 233 b 1815 243 1811 236 1814 240 b 1818 256 1817 247 1818 251 l 1818 515 l 1533 515 m 469 0 b 360 44 428 0 389 17 b 315 154 331 74 315 113 l 315 957 b 360 1067 315 999 331 1038 b 469 1111 389 1094 428 1111 l 1786 1111 b 1894 1067 1826 1111 1865 1094 b 1940 957 1924 1038 1940 999 l 1940 256 b 1928 197 1940 236 1936 215 b 1894 147 1921 178 1910 161 l 1793 44 b 1743 11 1779 31 1761 19 b 1685 0 1724 4 1704 0 m 1685 82 b 1711 88 1693 82 1703 83 b 1735 103 1721 90 1729 96 l 1838 204 b 1853 228 1844 211 1849 219 b 1858 256 1857 238 1858 246 l 1858 957 b 1838 1008 1858 976 1851 994 b 1786 1029 1824 1022 1806 1029 l 469 1029 b 418 1008 450 1029 432 1022 b 396 957 404 994 396 976 l 396 154 b 418 103 396 135 404 117 b 469 82 432 89 450 82 "},"9":{"ha":2254,"x_min":0,"x_max":0,"o":"m 938 451 l 1317 451 l 1317 660 l 938 660 m 446 979 b 438 957 440 974 438 965 l 438 740 l 857 740 l 857 989 l 469 989 b 446 979 460 989 453 986 m 938 740 l 1317 740 l 1317 989 l 938 989 m 438 451 l 857 451 l 857 660 l 438 660 m 1399 451 l 1818 451 l 1818 660 l 1399 660 m 1808 979 b 1786 989 1803 986 1794 989 l 1399 989 l 1399 740 l 1818 740 l 1818 957 b 1808 979 1818 965 1814 974 m 1399 122 l 1685 122 b 1696 125 1689 122 1692 124 b 1707 132 1700 126 1704 129 l 1808 233 b 1815 243 1811 236 1814 240 b 1818 256 1817 247 1818 251 l 1818 371 l 1399 371 m 438 154 b 446 132 438 146 440 138 b 469 122 453 125 460 122 l 857 122 l 857 371 l 438 371 m 938 122 l 1317 122 l 1317 371 l 938 371 m 469 0 b 360 44 428 0 389 17 b 315 154 331 74 315 113 l 315 957 b 360 1067 315 999 331 1038 b 469 1111 389 1094 428 1111 l 1786 1111 b 1894 1067 1826 1111 1865 1094 b 1940 957 1924 1038 1940 999 l 1940 256 b 1928 197 1940 236 1936 215 b 1894 147 1921 178 1910 161 l 1793 44 b 1743 11 1779 31 1761 19 b 1685 0 1724 4 1704 0 m 1685 82 b 1711 88 1693 82 1703 83 b 1735 103 1721 90 1729 96 l 1838 204 b 1853 228 1844 211 1849 219 b 1858 256 1857 238 1858 246 l 1858 957 b 1838 1008 1858 976 1851 994 b 1786 1029 1824 1022 1806 1029 l 469 1029 b 418 1008 450 1029 432 1022 b 396 957 404 994 396 976 l 396 154 b 418 103 396 135 404 117 b 469 82 432 89 450 82 "}," ":{"ha":967,"x_min":0,"x_max":0,"o":""},"!":{"ha":1982,"x_min":0,"x_max":0,"o":"m 1249 135 b 1254 135 1250 135 1253 135 b 1254 129 1254 131 1251 131 b 1254 126 1254 128 1254 128 l 1250 126 b 1246 131 1249 129 1249 129 l 1246 133 l 1249 135 m 431 376 l 433 376 l 433 375 b 432 374 433 375 432 374 b 429 375 431 374 431 375 m 500 151 b 517 150 508 151 513 151 l 517 149 l 514 142 b 497 143 508 140 501 139 b 494 146 496 144 496 144 b 500 151 497 149 499 150 m 1415 304 b 1415 296 1417 301 1417 300 l 1411 296 b 1410 297 1411 297 1411 297 l 1410 304 l 1413 306 b 1415 304 1414 304 1414 306 m 600 190 b 608 186 603 189 606 188 b 610 183 610 186 610 185 b 600 178 607 179 604 181 b 600 164 601 172 603 168 b 568 156 589 160 583 154 l 564 161 b 569 186 560 172 564 179 b 594 185 581 189 585 188 b 600 190 596 189 596 188 m 1257 128 b 1261 126 1258 128 1260 128 l 1261 125 b 1261 124 1261 125 1261 124 l 1257 124 m 488 136 b 496 135 490 136 493 135 b 497 133 497 133 497 133 b 494 129 496 132 496 131 b 485 128 492 128 488 128 l 482 131 b 488 136 485 133 485 135 m 1383 72 b 1396 71 1389 74 1392 74 l 1396 69 b 1389 56 1396 63 1393 60 b 1381 57 1386 56 1383 57 l 1381 69 b 1365 69 1376 68 1371 68 b 1372 100 1357 82 1364 94 l 1376 100 b 1383 72 1379 92 1388 86 m 1388 331 b 1367 331 1379 329 1376 326 b 1363 344 1365 333 1361 340 b 1372 357 1365 350 1369 353 b 1390 344 1379 356 1388 351 b 1388 331 1392 339 1390 336 m 1401 64 b 1406 64 1403 64 1404 64 b 1406 58 1406 60 1407 60 b 1401 60 1404 58 1403 60 l 1401 61 b 1401 64 1401 63 1401 64 m 1335 100 b 1342 100 1338 100 1340 100 b 1347 94 1344 97 1346 96 b 1336 86 1346 89 1342 86 b 1328 94 1333 89 1331 90 b 1335 100 1331 97 1332 99 m 1301 392 b 1300 390 1301 390 1300 390 b 1296 392 1297 390 1297 390 b 1292 403 1292 394 1290 399 b 1301 392 1303 404 1307 399 m 1311 389 b 1315 388 1313 389 1314 389 b 1307 376 1315 381 1314 378 b 1297 385 1303 379 1300 381 b 1297 388 1297 385 1297 386 b 1306 390 1300 388 1303 389 b 1311 389 1307 390 1310 390 m 1276 122 b 1281 118 1278 121 1279 119 b 1279 114 1279 117 1279 115 l 1278 114 b 1275 119 1275 115 1275 115 m 539 149 b 535 153 535 150 536 150 l 540 151 l 540 150 b 539 149 540 149 539 149 m 182 33 b 197 21 189 31 193 26 b 196 3 199 13 199 7 b 182 1 190 1 188 1 b 174 28 179 10 172 15 b 182 33 176 29 179 31 m 204 185 b 203 183 204 185 203 185 b 200 183 201 183 201 183 b 196 189 199 185 197 185 b 197 190 197 189 197 189 b 203 188 200 189 201 189 l 204 188 l 204 185 m 207 199 b 204 196 206 197 206 197 b 203 197 204 197 203 197 b 204 203 203 199 203 201 b 207 201 204 203 206 201 l 207 199 m 211 35 b 215 32 215 35 214 35 b 211 19 218 26 214 22 b 203 22 206 19 206 21 l 203 24 b 204 28 203 25 203 26 l 211 35 m 201 811 b 219 801 210 811 215 807 b 215 781 219 793 222 789 b 208 779 214 781 211 781 b 193 797 199 782 196 789 b 201 811 196 803 196 807 m 146 72 b 149 72 147 72 147 72 l 146 69 b 144 71 146 69 144 71 l 144 72 b 146 72 144 72 146 72 m 415 376 l 417 376 b 415 375 415 375 417 376 m 151 54 b 153 51 151 54 153 53 l 151 50 l 147 50 b 146 53 146 51 146 51 b 147 54 146 53 147 54 m 158 100 b 167 93 161 97 164 96 b 167 82 167 86 167 86 b 149 74 161 78 158 75 b 136 97 142 79 133 85 b 153 103 143 97 150 100 b 147 111 149 104 147 107 b 153 121 149 115 150 118 b 165 111 160 121 167 117 l 165 107 b 157 100 163 104 160 103 l 158 100 m 178 146 b 171 150 174 143 172 146 b 175 154 172 151 174 153 b 181 147 182 154 183 151 b 178 146 179 146 181 147 m 163 24 b 167 24 164 24 165 24 l 167 21 l 167 19 b 163 21 165 19 164 21 l 163 24 m 222 217 b 231 210 226 215 228 214 b 229 208 229 210 229 208 b 228 207 229 208 228 207 b 221 210 225 208 224 210 b 222 217 221 213 221 214 m 368 86 b 381 82 374 86 378 85 b 382 74 382 79 382 78 b 372 68 379 71 378 69 b 367 74 371 69 369 72 b 367 86 365 78 365 82 b 368 86 368 86 368 86 m 364 71 b 363 67 364 68 364 68 b 360 72 360 68 360 68 l 364 72 m 379 343 b 371 343 375 340 374 340 b 369 350 369 344 369 347 b 372 350 371 350 371 350 b 376 350 374 350 375 350 b 381 343 379 347 381 347 b 379 343 381 343 379 343 m 339 326 l 342 326 l 340 324 l 339 324 m 404 90 b 407 86 406 89 407 88 b 404 79 407 82 407 81 b 394 81 401 78 397 79 b 394 90 393 85 393 86 l 399 90 m 257 38 b 264 31 261 36 263 35 b 261 21 263 28 263 25 b 235 19 253 18 246 17 l 235 21 l 235 24 b 257 38 232 35 247 35 m 231 226 b 231 231 231 228 231 229 b 233 229 232 229 232 229 b 231 226 232 228 231 228 m 315 58 b 315 44 315 53 317 51 b 314 43 315 44 314 44 b 296 46 308 42 300 46 l 290 61 b 300 67 293 63 297 64 b 315 58 308 65 311 61 m 265 765 b 268 761 267 764 267 764 l 268 757 b 263 757 265 757 265 756 b 260 757 263 757 261 757 b 265 765 260 763 261 763 m 288 726 b 290 724 288 725 289 725 b 289 721 290 722 289 722 b 286 722 288 721 288 722 b 288 726 286 725 286 724 m 271 242 b 271 247 271 243 271 244 l 274 244 l 274 242 l 271 242 m 272 1015 b 281 1008 276 1014 278 1013 b 267 1007 276 1003 272 1004 l 267 1008 b 272 1015 269 1011 271 1014 m 319 579 b 319 563 318 574 318 568 b 319 579 317 567 317 572 m 1599 115 b 1586 113 1596 114 1590 111 b 1583 115 1585 114 1583 114 b 1588 124 1583 121 1585 121 b 1599 122 1592 122 1594 122 b 1599 115 1599 119 1599 118 m 1650 36 b 1653 32 1651 35 1653 33 b 1651 22 1653 26 1653 25 b 1649 21 1651 22 1650 22 b 1643 24 1647 22 1644 22 b 1640 32 1642 26 1640 29 b 1644 36 1642 33 1643 35 m 1635 24 b 1636 25 1635 25 1636 25 l 1640 25 b 1635 19 1640 19 1639 18 l 1635 24 m 1594 29 b 1600 28 1596 29 1597 29 b 1599 24 1599 26 1599 25 l 1593 24 l 1593 25 b 1594 29 1593 28 1593 28 m 1588 99 b 1588 101 1588 99 1588 100 l 1590 101 b 1588 99 1590 100 1589 99 l 1588 99 m 1529 24 b 1526 29 1526 25 1525 25 b 1531 28 1528 28 1529 28 b 1529 24 1529 24 1531 25 m 1550 157 b 1540 151 1547 154 1544 153 b 1536 154 1539 153 1538 153 l 1536 157 b 1542 160 1538 158 1539 158 b 1550 157 1546 160 1547 160 m 1565 25 b 1582 25 1571 28 1575 28 b 1583 21 1582 24 1582 22 b 1571 15 1578 21 1574 18 b 1568 17 1569 17 1569 17 b 1565 22 1568 21 1568 21 b 1557 10 1563 18 1561 14 l 1550 11 b 1539 24 1543 14 1542 17 b 1542 33 1540 28 1540 31 b 1546 36 1543 35 1544 35 b 1565 25 1558 36 1560 32 m 1529 190 b 1529 193 1529 190 1529 192 b 1533 192 1531 193 1532 192 b 1531 188 1532 189 1532 189 b 1529 189 1531 188 1529 189 l 1529 190 m 1714 1001 b 1713 990 1721 999 1717 993 b 1710 992 1713 990 1711 992 l 1710 997 b 1714 1001 1711 999 1713 1000 m 1689 953 b 1686 954 1688 954 1688 954 b 1688 957 1688 956 1688 957 b 1690 956 1689 957 1689 956 b 1689 953 1690 954 1689 954 m 1688 950 b 1696 947 1692 950 1694 950 b 1697 943 1696 946 1697 944 b 1693 938 1696 942 1694 940 b 1682 938 1690 938 1686 936 b 1681 940 1682 939 1681 939 b 1683 950 1682 943 1683 947 b 1688 950 1685 950 1686 950 m 1696 1033 b 1713 1025 1706 1033 1707 1031 b 1708 994 1713 1011 1710 1006 b 1689 988 1701 993 1696 990 b 1682 1015 1685 994 1681 1000 b 1663 1007 1671 1014 1669 1010 b 1660 1010 1661 1008 1661 1008 b 1663 1018 1663 1014 1665 1015 b 1656 1032 1661 1024 1658 1028 b 1665 1046 1658 1036 1663 1042 b 1693 1042 1672 1043 1686 1043 b 1696 1033 1693 1036 1693 1036 m 1526 181 b 1525 178 1526 181 1526 179 b 1521 182 1521 179 1522 179 b 1522 183 1521 182 1522 183 l 1525 183 m 1643 935 b 1640 938 1640 936 1642 935 l 1642 938 b 1644 938 1643 938 1644 938 b 1643 935 1644 936 1644 936 m 1413 313 b 1413 313 1413 313 1413 313 b 1408 314 1410 313 1410 313 b 1410 317 1408 315 1408 315 b 1413 317 1410 317 1411 317 b 1413 313 1413 315 1413 314 m 1675 989 b 1674 981 1676 985 1678 983 b 1649 964 1668 971 1660 968 b 1636 983 1642 968 1638 974 b 1644 999 1642 989 1640 993 b 1658 1006 1650 1001 1654 1003 b 1663 1004 1660 1004 1661 1004 b 1675 989 1667 996 1667 990 m 1683 975 b 1678 976 1679 975 1681 975 b 1679 979 1679 976 1679 978 b 1683 976 1681 978 1682 978 b 1683 975 1683 976 1683 976 m 1682 956 b 1675 960 1679 957 1678 958 b 1676 965 1676 963 1676 964 b 1679 968 1678 967 1679 967 b 1688 964 1685 968 1685 968 b 1688 960 1689 963 1689 963 b 1685 956 1686 958 1686 957 m 1631 74 b 1651 68 1640 71 1646 75 b 1656 57 1654 65 1656 61 b 1638 51 1653 47 1646 49 b 1632 42 1636 46 1635 46 b 1617 18 1631 39 1639 19 b 1606 18 1611 21 1611 21 l 1600 21 b 1603 25 1600 25 1601 24 b 1601 36 1603 25 1600 33 b 1610 47 1603 40 1610 42 b 1608 58 1611 50 1610 53 b 1599 63 1604 58 1603 60 b 1600 74 1599 68 1599 69 b 1626 74 1610 75 1618 74 b 1629 79 1628 78 1628 78 l 1631 79 b 1631 74 1631 75 1629 75 m 1497 40 b 1517 38 1504 40 1511 39 l 1518 36 b 1511 14 1515 31 1515 21 b 1489 8 1504 11 1500 8 b 1481 21 1485 13 1482 14 b 1483 36 1481 26 1481 32 b 1497 40 1488 38 1493 39 m 1426 578 b 1428 581 1426 579 1428 579 l 1428 581 b 1425 578 1426 579 1426 579 l 1426 578 m 1424 568 b 1425 572 1424 569 1425 571 l 1424 572 b 1422 567 1422 569 1422 568 b 1424 568 1422 567 1424 568 m 1421 572 b 1424 574 1422 572 1422 574 b 1421 576 1422 575 1424 575 l 1421 572 m 1421 586 b 1419 582 1421 585 1419 583 b 1421 582 1419 582 1421 582 b 1424 585 1422 582 1422 583 l 1424 586 b 1421 586 1422 586 1421 586 m 1417 597 b 1414 600 1417 600 1418 599 b 1417 597 1415 599 1415 597 m 1417 567 l 1414 564 b 1415 561 1414 564 1414 563 l 1417 561 m 1400 535 b 1415 547 1408 536 1413 540 b 1414 550 1415 550 1415 549 b 1400 535 1410 544 1404 540 m 1389 532 b 1397 538 1392 533 1394 536 l 1394 538 b 1390 535 1393 538 1392 536 b 1389 532 1390 533 1389 532 m 1382 529 b 1389 535 1386 531 1388 531 l 1388 535 b 1379 531 1385 533 1382 532 l 1379 529 l 1382 529 m 1375 524 b 1385 529 1376 525 1386 529 b 1375 526 1382 529 1379 528 b 1375 524 1375 525 1375 525 m 1363 531 b 1375 538 1364 532 1378 536 b 1363 531 1369 535 1365 535 m 1364 521 b 1371 525 1369 521 1369 524 b 1364 521 1368 524 1367 522 l 1364 521 m 1339 506 b 1363 515 1350 507 1357 508 l 1361 515 b 1339 506 1353 511 1344 511 m 1319 497 b 1349 506 1331 497 1343 501 l 1347 506 b 1319 497 1339 501 1328 500 l 1319 497 m 1315 503 b 1300 496 1310 500 1306 499 b 1319 503 1307 497 1315 499 l 1315 503 m 1306 508 b 1299 504 1303 507 1301 506 b 1311 507 1303 506 1307 507 l 1311 508 l 1306 508 m 1268 485 b 1299 493 1278 486 1293 488 l 1296 493 b 1268 485 1286 490 1276 488 m 1279 496 b 1278 494 1279 496 1278 496 l 1283 494 l 1283 496 m 1263 499 b 1279 501 1268 500 1274 501 l 1269 501 b 1263 500 1267 501 1265 500 m 1238 485 b 1256 489 1243 486 1250 488 l 1244 489 l 1238 486 l 1238 485 m 1236 497 b 1251 500 1242 497 1246 499 b 1249 501 1250 500 1249 500 b 1236 497 1244 500 1240 499 l 1236 497 m 1296 507 b 1275 503 1289 506 1282 504 l 1275 503 b 1299 507 1286 501 1293 503 m 1233 507 b 1315 519 1264 507 1290 514 l 1315 519 l 1310 519 b 1233 508 1285 515 1258 513 m 1324 515 b 1319 514 1322 515 1321 514 l 1325 515 m 1336 515 l 1340 515 b 1344 521 1342 517 1343 519 m 1356 524 b 1353 521 1354 522 1353 522 b 1357 524 1354 522 1356 522 m 1383 547 b 1372 540 1381 546 1376 543 b 1383 547 1378 542 1383 544 m 1225 533 b 1232 511 1228 526 1231 518 b 1274 517 1246 513 1260 515 b 1325 522 1290 518 1308 521 b 1403 581 1356 532 1390 553 b 1393 593 1400 585 1397 589 b 1360 600 1385 599 1371 599 b 1251 624 1324 608 1286 613 b 1225 533 1253 594 1243 542 m 1265 626 b 1251 631 1261 628 1256 629 b 1265 626 1254 628 1263 626 m 1253 635 b 1260 636 1256 636 1257 636 l 1253 638 m 1281 633 b 1261 638 1278 636 1268 638 b 1281 633 1267 633 1275 635 m 1322 633 b 1279 639 1308 635 1294 638 b 1324 629 1294 636 1310 632 b 1322 633 1324 631 1324 632 m 1285 629 b 1308 625 1293 628 1300 626 b 1285 629 1303 628 1293 629 m 1314 617 b 1292 624 1308 621 1300 622 b 1314 617 1299 621 1306 619 m 1326 617 b 1319 618 1324 618 1322 618 b 1326 617 1321 617 1324 617 m 1313 626 b 1328 624 1315 625 1324 622 b 1313 626 1322 625 1318 626 m 1336 621 b 1328 622 1333 622 1331 622 b 1336 621 1331 621 1333 619 m 1333 631 b 1332 629 1333 629 1332 629 b 1344 626 1336 628 1340 628 b 1333 631 1340 628 1336 629 m 1343 624 b 1349 624 1344 622 1346 622 b 1343 624 1347 624 1344 624 m 1361 607 b 1340 611 1354 608 1347 610 b 1361 607 1344 608 1357 604 m 1375 617 b 1350 621 1365 618 1361 621 b 1367 615 1354 618 1360 617 b 1365 618 1367 617 1365 617 b 1375 617 1368 617 1371 615 m 1376 604 b 1363 610 1372 607 1368 608 b 1376 604 1365 607 1372 604 m 1383 611 b 1375 614 1381 614 1379 614 b 1383 611 1378 613 1381 613 m 1392 603 b 1386 606 1390 604 1389 606 b 1392 603 1388 604 1390 604 m 1389 613 b 1403 607 1393 610 1397 608 b 1397 613 1401 610 1399 611 m 1403 582 b 1406 585 1404 582 1404 583 l 1403 589 b 1397 590 1401 590 1399 590 b 1403 582 1400 588 1401 585 m 1406 564 b 1404 564 1404 564 1404 564 b 1401 560 1403 563 1401 563 m 1399 567 b 1401 569 1401 568 1400 568 b 1399 567 1400 568 1400 568 m 1397 558 b 1399 560 1399 560 1399 558 b 1397 558 1399 560 1397 558 m 1390 547 b 1397 556 1393 550 1397 553 b 1389 547 1393 553 1392 551 l 1390 547 m 1401 550 b 1394 543 1400 547 1397 546 b 1403 549 1397 546 1400 547 b 1401 550 1403 549 1403 549 m 1410 610 b 1401 613 1407 611 1404 611 b 1411 606 1404 608 1406 607 b 1410 610 1411 607 1411 608 m 1411 575 b 1411 578 1413 576 1411 575 b 1411 575 1411 576 1411 576 m 1411 564 b 1411 558 1411 561 1411 560 b 1414 560 1411 558 1413 558 l 1414 563 b 1411 564 1413 563 1413 563 m 1414 589 b 1411 590 1413 589 1411 590 b 1410 589 1411 590 1410 589 b 1413 586 1411 589 1413 588 b 1414 589 1414 588 1414 589 m 1426 589 b 1424 590 1425 589 1425 590 b 1422 589 1424 589 1422 589 b 1424 586 1422 588 1422 588 l 1424 586 b 1426 589 1426 588 1425 586 m 1424 599 b 1419 599 1422 599 1421 599 b 1425 594 1421 596 1421 596 b 1425 597 1425 596 1425 596 b 1424 599 1425 597 1424 597 m 1219 846 b 1214 806 1217 838 1210 813 b 1310 815 1246 808 1278 811 b 1346 822 1321 817 1339 815 b 1219 846 1306 828 1265 844 m 1239 847 b 1219 849 1232 847 1226 849 b 1239 847 1224 847 1235 846 m 1239 854 b 1228 857 1235 856 1232 856 b 1239 854 1231 854 1236 854 m 1250 849 b 1232 851 1244 850 1238 850 b 1250 849 1236 850 1246 847 m 1269 849 b 1258 849 1265 849 1261 849 b 1269 849 1261 847 1265 847 m 1281 850 b 1244 857 1268 853 1257 854 b 1281 850 1251 853 1272 847 m 1319 832 b 1294 839 1314 836 1304 839 l 1319 832 m 1315 840 b 1296 844 1308 842 1301 843 b 1315 840 1300 842 1310 839 m 1343 833 b 1333 836 1340 835 1338 835 b 1343 833 1336 833 1340 832 m 1351 819 b 1340 817 1347 818 1344 818 l 1340 817 b 1356 817 1349 817 1346 817 m 1360 825 b 1354 826 1358 826 1358 826 b 1360 825 1357 825 1356 825 m 1364 832 b 1356 833 1361 831 1363 833 b 1363 828 1358 832 1360 829 b 1367 828 1364 828 1365 828 l 1367 831 b 1364 832 1367 831 1365 832 m 1364 824 b 1367 822 1367 822 1364 824 b 1364 824 1365 824 1367 824 m 1363 813 b 1364 814 1364 813 1367 811 l 1363 814 b 1363 813 1363 813 1363 813 m 1358 811 b 1358 813 1360 813 1360 811 l 1358 811 m 1342 807 b 1353 810 1346 807 1351 807 l 1351 810 b 1342 808 1349 808 1346 808 l 1342 807 m 1336 811 b 1347 814 1342 811 1344 811 l 1346 814 b 1336 811 1343 813 1339 813 m 1321 806 b 1332 808 1325 807 1328 807 l 1328 808 b 1321 807 1326 808 1324 807 l 1321 806 m 1318 807 l 1311 807 b 1306 806 1310 807 1308 806 m 1311 800 b 1342 803 1321 800 1332 801 b 1332 804 1339 803 1336 803 b 1311 800 1325 803 1318 801 m 1265 797 b 1296 801 1275 799 1286 800 b 1292 801 1294 801 1293 801 b 1265 797 1283 800 1274 799 l 1265 797 m 1279 794 b 1296 796 1285 794 1290 796 l 1286 796 l 1279 794 m 1253 804 b 1293 807 1267 804 1281 806 l 1293 808 l 1286 808 l 1253 804 m 1235 796 b 1261 800 1244 797 1253 799 l 1257 800 b 1235 797 1249 799 1242 799 l 1235 796 m 1232 803 b 1243 804 1236 803 1240 804 l 1239 804 l 1232 803 m 1231 800 b 1214 797 1225 799 1219 797 l 1214 796 l 1215 796 b 1236 800 1222 797 1229 799 m 1214 793 b 1228 793 1217 792 1224 792 l 1214 793 m 1175 383 b 1164 386 1171 385 1168 385 l 1164 383 l 1175 383 m 1207 379 b 1169 388 1196 382 1185 386 b 1207 379 1176 383 1199 376 m 1214 372 b 1213 374 1214 372 1214 372 b 1214 375 1213 374 1214 374 l 1206 375 b 1214 372 1208 375 1211 374 m 1208 369 b 1218 367 1210 367 1214 365 b 1208 369 1214 368 1211 368 m 1232 367 b 1218 374 1228 369 1222 372 b 1232 367 1221 369 1228 369 m 1226 367 b 1242 360 1229 363 1236 361 b 1226 367 1236 363 1232 364 m 1247 356 l 1240 358 l 1250 350 m 1239 353 b 1250 346 1242 350 1246 347 b 1239 353 1247 349 1243 350 m 1261 332 b 1256 336 1258 335 1258 335 b 1261 332 1257 335 1258 333 m 1261 347 b 1265 343 1263 344 1263 344 m 1271 332 b 1265 340 1269 336 1268 339 b 1271 332 1267 336 1268 335 m 1268 321 b 1272 313 1269 318 1271 315 b 1268 321 1271 317 1271 319 m 1276 328 b 1274 332 1276 329 1275 331 b 1276 328 1275 329 1275 329 m 1281 317 b 1276 322 1279 321 1279 321 l 1281 317 m 1283 296 b 1281 300 1282 297 1281 299 b 1279 292 1281 297 1279 294 b 1282 293 1281 293 1281 293 b 1283 296 1282 294 1282 296 m 1282 311 b 1285 304 1282 307 1283 307 b 1283 311 1285 308 1285 308 m 1286 297 b 1289 293 1288 294 1286 296 b 1288 297 1289 294 1288 296 m 1289 297 b 1290 296 1289 297 1290 296 b 1289 303 1290 300 1290 301 m 1288 290 b 1286 285 1286 288 1286 286 l 1288 285 l 1288 286 b 1289 290 1288 288 1288 289 m 1285 293 b 1288 292 1286 292 1285 293 l 1285 293 m 1285 283 b 1285 286 1285 285 1285 285 l 1285 283 m 1288 279 b 1290 288 1292 282 1290 282 l 1289 288 b 1285 279 1288 285 1286 282 b 1285 279 1285 279 1285 279 b 1283 278 1285 279 1283 279 b 1285 279 1283 279 1285 279 b 1288 279 1288 279 1285 278 m 1281 276 b 1281 278 1282 278 1281 278 b 1281 276 1281 278 1281 276 m 1278 310 b 1281 304 1278 307 1279 306 b 1278 310 1279 307 1279 307 m 1278 303 b 1279 299 1278 301 1278 300 l 1279 299 l 1279 301 l 1278 303 m 1278 282 l 1276 282 b 1275 278 1276 281 1275 279 b 1278 278 1276 278 1276 278 m 1274 269 b 1275 271 1276 271 1275 271 b 1274 271 1275 271 1274 271 l 1274 269 m 1268 261 b 1275 269 1271 264 1274 265 l 1274 269 b 1268 261 1272 267 1269 264 m 1268 271 b 1267 269 1268 271 1268 269 b 1271 271 1268 269 1269 269 l 1271 271 l 1268 271 m 1263 260 b 1267 265 1265 261 1265 263 l 1267 265 l 1258 260 l 1263 260 m 1258 257 l 1254 257 b 1254 256 1254 256 1254 256 b 1258 256 1256 256 1257 256 m 1238 251 b 1250 256 1242 251 1247 253 l 1249 256 b 1238 251 1244 254 1242 253 m 1249 250 l 1246 250 b 1243 247 1244 249 1244 247 m 1219 240 b 1239 247 1226 242 1233 244 l 1236 247 b 1219 240 1231 244 1225 244 m 1200 236 b 1214 243 1203 238 1215 243 b 1200 236 1208 240 1203 240 m 1182 240 b 1201 246 1189 243 1194 244 l 1201 247 l 1199 247 b 1182 242 1193 244 1188 243 m 1182 232 l 1178 232 b 1160 225 1171 229 1165 226 b 1182 231 1168 226 1175 229 m 1140 217 b 1164 224 1149 219 1157 221 l 1161 224 b 1140 218 1154 222 1147 219 l 1140 217 m 1140 225 l 1136 225 b 1106 218 1126 222 1115 221 l 1106 217 b 1140 225 1119 218 1129 222 m 1125 214 b 1140 218 1129 215 1135 217 b 1136 219 1139 219 1138 219 l 1125 214 l 1125 214 m 1114 207 b 1129 210 1119 208 1124 210 l 1126 210 b 1114 207 1122 210 1118 208 m 1110 211 b 1121 214 1114 213 1118 214 l 1119 214 b 1110 213 1117 214 1114 213 l 1110 211 m 1099 203 b 1114 207 1103 204 1108 206 l 1111 207 b 1099 203 1107 206 1103 204 l 1099 203 m 1094 203 b 1086 204 1092 203 1089 204 b 1051 199 1075 201 1063 200 l 1051 197 b 1063 199 1054 197 1058 199 b 1060 197 1061 199 1061 197 m 1072 196 l 1068 196 b 1040 188 1058 192 1046 194 b 1072 194 1050 190 1061 193 m 1053 549 b 1074 583 1063 549 1071 563 b 1071 579 1074 582 1072 581 b 1054 572 1067 575 1060 572 l 988 572 l 988 549 m 988 707 l 1054 707 b 1071 700 1060 707 1067 704 b 1074 696 1072 699 1074 697 b 1053 731 1071 717 1063 731 l 988 731 m 1074 210 b 1064 207 1071 208 1067 207 l 1064 206 b 1076 210 1068 207 1072 208 m 1089 717 b 1064 731 1082 724 1072 728 b 1078 682 1072 722 1078 704 l 1079 650 l 1029 650 l 1029 626 l 1079 626 l 1078 597 b 1064 550 1078 575 1072 557 b 1089 563 1072 551 1082 556 b 1107 597 1099 572 1107 585 l 1107 682 b 1089 717 1107 694 1099 707 m 1106 215 b 1083 210 1099 214 1092 211 l 1083 208 b 1110 214 1093 211 1101 213 b 1106 215 1108 215 1107 215 m 1144 226 b 1143 225 1143 226 1143 225 l 1143 225 b 1146 226 1143 225 1144 225 m 1156 232 b 1151 231 1154 232 1153 232 l 1151 231 b 1157 232 1154 231 1156 232 m 1167 238 b 1176 240 1171 238 1174 239 l 1175 240 b 1167 239 1172 240 1169 239 l 1167 238 m 1178 236 b 1161 231 1172 235 1165 235 b 1181 236 1168 233 1176 233 l 1178 236 m 1207 247 b 1206 246 1207 246 1206 246 l 1206 244 b 1208 247 1207 246 1207 246 m 1224 251 b 1219 249 1222 251 1221 250 b 1226 251 1222 250 1224 251 m 1249 264 b 1231 256 1243 258 1238 263 b 1249 264 1238 257 1247 260 m 1257 269 b 1258 271 1258 271 1258 271 b 1257 271 1257 271 1257 271 l 1257 269 m 1265 271 b 1254 263 1261 268 1258 265 b 1265 271 1257 263 1267 268 m 1272 278 b 1271 275 1272 278 1272 276 b 1272 278 1274 276 1272 275 m 1263 332 b 1267 328 1264 329 1264 329 b 1263 332 1265 329 1264 331 m 1218 363 b 1228 358 1221 361 1225 360 b 1218 363 1226 361 1224 363 m 1189 371 b 1176 374 1186 372 1182 374 b 1189 371 1181 372 1185 372 m 1172 382 b 1182 379 1175 381 1178 381 b 1172 382 1179 382 1176 382 m 1131 269 b 1082 217 1124 253 1086 231 l 1083 217 b 1203 250 1110 225 1160 236 l 1203 250 b 1236 263 1217 251 1229 256 l 1235 263 b 1233 263 1235 263 1235 263 b 1275 288 1254 269 1269 279 b 1258 328 1276 308 1265 315 l 1267 319 b 1257 332 1264 326 1261 329 b 1258 328 1257 331 1257 329 b 1203 365 1239 343 1224 358 b 1158 375 1188 368 1174 371 b 1136 340 1151 364 1140 354 b 1131 269 1131 317 1140 289 m 972 572 b 956 579 967 572 960 575 b 953 583 954 581 953 582 b 972 549 956 564 963 550 m 938 563 b 964 549 946 556 954 551 b 949 596 954 557 949 575 b 949 596 949 596 949 596 l 949 731 l 924 731 l 924 597 b 938 563 924 585 929 572 m 901 628 b 894 644 901 633 900 640 b 878 651 890 650 883 651 l 832 651 b 839 635 832 646 833 639 b 856 628 843 629 850 628 m 810 682 b 796 717 810 694 804 707 b 769 731 788 724 779 728 b 785 682 779 722 785 704 l 785 597 b 769 550 785 575 779 557 b 796 563 779 551 788 556 b 810 597 804 572 810 585 m 760 549 b 781 583 769 549 778 563 b 778 579 781 582 779 581 b 761 572 774 575 767 572 l 675 572 b 658 579 669 572 663 575 b 656 583 657 581 657 582 b 676 549 658 563 667 549 l 760 549 m 642 563 b 667 550 649 556 657 551 b 651 597 657 557 651 575 l 651 682 b 667 731 651 704 657 722 b 642 717 657 728 649 724 b 626 682 632 707 626 694 l 626 597 b 642 563 626 585 632 572 m 656 208 b 665 207 658 206 663 206 b 656 208 663 207 660 207 m 617 221 b 636 218 622 218 631 217 b 635 219 635 219 635 219 b 617 221 629 219 622 221 m 633 213 b 632 214 632 213 632 213 b 613 217 625 214 618 215 b 633 211 619 214 626 213 m 576 226 b 596 225 579 225 590 222 b 576 226 589 226 582 226 m 567 222 b 594 214 574 218 585 215 b 576 221 589 217 582 219 l 576 222 l 567 222 m 575 231 b 549 236 568 235 558 235 b 575 231 556 232 565 232 m 525 242 b 542 235 528 238 535 236 b 525 242 536 238 531 239 m 504 242 b 526 232 510 236 518 233 b 504 242 519 235 511 239 m 507 249 b 489 260 503 254 496 257 b 507 249 493 256 500 251 m 476 275 b 493 261 481 268 485 264 b 476 275 488 265 482 269 m 467 288 b 475 274 467 282 471 276 b 467 288 472 278 469 282 m 456 300 b 474 267 456 285 465 272 b 456 300 467 278 463 286 m 468 326 b 460 292 463 319 453 306 b 468 326 458 308 468 318 m 468 314 b 476 326 469 317 478 325 b 467 313 472 322 468 319 b 468 314 467 314 468 314 m 471 289 b 467 308 468 294 468 303 b 471 289 465 300 467 293 m 521 244 b 511 251 517 247 514 249 b 521 244 514 247 515 246 m 496 332 b 488 272 461 318 465 294 b 489 268 485 271 486 272 b 521 249 500 263 510 256 b 657 222 547 235 618 222 l 657 224 b 571 304 639 261 614 292 b 564 367 568 328 576 349 b 499 336 542 357 521 346 b 501 339 500 338 500 338 b 478 322 492 338 483 329 b 499 336 485 326 492 332 b 496 332 497 335 497 333 m 478 339 b 485 343 479 340 482 342 l 482 343 b 478 339 481 342 479 340 m 490 336 b 486 333 489 336 488 335 b 490 336 488 333 492 336 m 507 346 b 500 342 504 344 503 343 b 508 346 504 343 507 343 m 507 353 b 500 347 504 350 503 349 b 510 353 503 349 507 350 l 507 353 m 525 351 b 511 344 519 349 514 349 l 526 351 l 525 351 m 522 361 b 511 354 518 358 514 358 b 525 361 517 356 521 358 l 522 361 m 526 361 b 531 364 529 361 533 363 b 526 361 529 363 528 363 m 529 365 b 533 367 531 365 532 365 l 531 367 b 529 365 531 367 531 365 m 536 360 b 521 353 531 357 525 358 b 539 360 526 356 533 357 m 557 371 b 539 363 551 368 546 365 b 560 371 547 364 556 367 l 557 371 m 557 375 b 542 368 553 372 546 372 b 560 375 549 371 554 374 l 557 375 m 554 379 b 547 375 551 378 550 376 b 557 379 550 376 554 378 l 554 379 m 676 731 b 656 696 667 731 658 717 b 658 700 657 697 657 699 b 675 707 663 704 669 707 l 761 707 b 778 700 767 707 774 704 b 781 696 779 699 781 697 b 760 731 778 717 769 731 l 676 731 m 510 550 l 504 557 b 508 576 506 564 507 569 b 503 635 511 599 506 618 l 494 635 b 419 617 469 626 443 626 l 419 607 b 413 603 417 606 415 604 b 389 603 406 600 394 604 b 346 572 379 600 353 579 b 350 563 347 568 349 565 b 385 544 367 561 374 550 b 493 514 415 531 451 515 m 469 515 b 492 510 478 514 485 511 l 492 513 b 469 515 485 514 478 514 m 476 503 b 493 499 482 501 488 500 b 476 503 489 501 482 503 m 478 490 b 485 490 479 490 482 489 b 478 490 482 490 481 490 m 425 507 b 464 497 431 501 456 494 b 425 507 450 500 438 503 m 425 521 b 458 514 431 517 449 511 b 425 521 447 517 439 521 m 418 525 b 425 524 419 524 422 522 b 418 525 422 525 421 525 m 428 510 b 399 519 421 515 408 518 b 428 510 406 514 417 511 m 411 525 b 393 532 407 529 400 531 b 413 525 397 529 407 524 l 411 525 m 392 542 b 414 532 397 536 406 533 b 392 542 407 535 399 538 m 365 550 b 392 538 371 543 381 539 b 365 550 386 543 376 547 m 358 542 b 368 535 363 539 365 538 b 358 542 367 539 364 540 m 354 560 b 375 549 358 553 364 550 b 354 560 368 554 361 557 m 343 561 b 347 558 344 560 346 558 b 343 561 346 560 346 560 m 340 567 b 344 564 342 565 342 565 l 340 567 m 342 578 l 342 576 b 343 578 342 578 343 578 m 336 585 b 349 594 340 589 344 592 l 347 594 b 336 585 343 592 339 590 m 333 558 b 339 554 336 556 336 556 b 333 558 338 557 338 557 m 332 567 b 335 561 332 564 332 563 b 332 567 333 563 332 565 m 335 582 b 332 574 333 579 332 576 l 332 574 l 335 582 m 329 575 b 335 588 331 579 338 586 b 328 575 332 583 329 581 m 347 586 b 353 590 349 586 354 590 l 347 586 m 354 585 b 347 581 353 583 350 582 b 346 576 347 579 346 578 l 346 576 b 356 585 351 579 354 581 m 368 597 b 356 589 363 594 358 593 b 369 597 360 592 365 594 l 368 597 m 378 606 b 364 597 372 603 368 601 b 381 606 371 599 376 601 l 378 606 m 367 611 b 372 615 368 613 371 614 l 367 613 m 431 629 b 435 631 432 629 433 629 l 433 631 b 431 629 432 631 432 629 l 431 629 m 436 626 b 431 624 435 625 432 624 b 439 626 433 624 436 625 l 436 626 m 453 646 b 413 633 439 640 422 640 b 454 646 426 636 444 638 l 453 646 m 453 646 b 469 650 458 646 465 647 l 467 650 b 453 647 463 649 457 649 m 479 639 b 476 640 478 640 476 640 b 457 633 469 638 463 638 b 479 639 464 636 472 638 m 485 650 l 456 642 b 486 650 465 644 476 647 m 496 642 b 481 639 492 640 486 640 l 481 638 b 501 642 488 639 494 640 l 501 642 l 496 642 m 483 849 b 499 849 489 849 493 849 l 499 850 l 490 850 b 483 849 489 849 486 849 m 464 810 b 485 839 467 815 488 836 b 458 835 476 838 467 836 b 401 824 439 832 419 828 l 401 824 b 464 810 422 821 442 811 m 446 811 b 463 808 450 810 457 807 b 446 811 457 810 451 810 m 432 800 b 456 796 436 797 450 793 b 432 800 447 797 439 799 m 451 801 b 428 807 444 804 436 806 b 451 801 433 804 446 800 m 424 814 b 438 810 426 811 433 808 b 424 814 433 811 428 813 m 397 819 b 413 815 400 817 408 814 b 397 819 407 817 401 818 m 390 817 b 401 813 393 815 397 814 l 388 819 b 390 817 389 817 388 818 m 386 825 b 386 826 388 826 388 825 l 386 825 m 386 819 b 386 821 386 819 386 821 b 383 824 385 822 386 822 b 385 819 383 821 383 821 l 386 819 m 381 826 b 382 828 381 826 382 828 b 381 832 382 829 382 831 b 379 825 381 829 379 829 l 381 825 l 381 826 m 389 824 b 389 825 390 825 390 824 m 393 831 b 410 832 399 831 404 832 b 403 833 407 833 406 833 b 393 831 400 832 397 832 m 415 843 b 401 839 411 842 406 840 b 418 843 407 840 413 842 l 415 843 m 410 829 b 399 825 406 828 401 828 b 413 828 403 826 408 828 l 413 829 m 421 838 l 413 838 b 410 836 411 838 410 838 l 410 836 b 421 836 413 836 417 836 m 421 835 b 417 832 419 833 418 833 b 429 835 421 833 425 833 m 456 840 b 438 836 450 839 443 838 b 458 840 444 836 453 836 l 456 840 m 471 840 b 458 839 467 840 463 839 l 458 838 b 476 840 465 839 471 840 m 451 843 b 475 846 460 843 467 844 l 463 846 b 451 843 458 844 454 844 m 457 850 b 460 850 458 850 460 850 l 460 850 m 461 851 b 464 850 463 851 464 851 l 464 851 m 1432 590 b 1428 575 1433 586 1428 578 b 1428 568 1428 572 1428 569 l 1421 561 b 1415 542 1419 554 1417 549 b 1383 524 1410 533 1392 528 b 1364 511 1378 521 1371 510 b 1376 519 1369 513 1374 517 b 1332 496 1360 515 1353 503 b 1269 481 1310 489 1292 486 b 1239 479 1260 481 1249 479 b 1193 432 1232 451 1213 446 b 1165 389 1185 425 1171 400 b 1281 324 1219 383 1257 361 b 1292 282 1288 313 1297 300 b 1279 267 1289 276 1285 272 b 1281 274 1281 269 1283 272 b 1276 265 1279 271 1278 268 b 1279 267 1278 265 1278 267 b 1153 215 1249 240 1185 224 b 1156 214 1153 215 1154 214 b 1110 201 1140 210 1125 204 b 1039 186 1086 196 1063 192 b 1022 164 1033 179 1028 171 b 982 115 1008 147 994 132 b 936 64 968 99 956 74 b 828 65 904 46 860 57 b 746 79 801 72 768 69 b 669 199 724 89 678 172 b 564 215 639 199 600 206 b 578 215 569 214 574 214 b 526 229 561 219 544 225 b 538 224 529 228 533 225 b 467 265 506 235 479 249 b 518 363 425 319 483 344 b 557 382 526 367 542 379 b 499 457 551 419 513 431 b 494 479 496 464 500 475 l 436 494 b 332 543 400 506 361 524 b 319 563 325 549 321 554 b 340 542 322 553 332 544 b 361 614 299 581 335 589 b 379 621 369 617 378 621 b 383 633 381 625 382 631 b 464 651 411 632 436 646 b 497 660 474 654 493 653 b 465 726 488 685 475 704 b 460 753 464 736 461 744 b 451 765 457 757 454 761 l 456 792 b 381 814 426 796 396 808 b 376 826 379 819 376 821 b 500 854 386 846 471 853 b 579 928 500 875 564 908 b 594 954 585 936 589 944 b 617 971 601 960 608 965 b 640 996 624 979 632 988 b 675 1007 651 1000 663 1003 b 719 1036 690 1017 706 1026 b 753 1042 731 1038 742 1040 b 801 1057 769 1046 785 1051 b 826 1068 810 1061 818 1064 b 843 1082 832 1072 838 1078 b 968 1081 875 1093 936 1088 b 1028 1076 989 1079 1008 1078 b 1142 986 1078 1063 1114 1024 b 1222 861 1160 961 1233 896 b 1329 840 1260 860 1300 849 b 1371 831 1342 838 1363 839 b 1368 826 1369 829 1369 828 b 1375 824 1372 826 1374 825 b 1369 822 1374 822 1372 822 b 1371 819 1369 821 1369 821 b 1375 818 1372 819 1374 819 l 1375 817 b 1371 815 1374 815 1372 815 b 1372 810 1372 813 1372 813 b 1342 800 1363 807 1353 804 b 1268 793 1318 794 1294 797 b 1251 792 1263 792 1257 792 b 1256 792 1253 792 1254 792 l 1214 788 l 1214 786 b 1219 785 1217 785 1218 785 l 1215 785 l 1215 740 b 1246 681 1225 721 1236 700 l 1243 669 b 1250 644 1244 661 1247 653 b 1322 635 1271 642 1301 635 b 1328 656 1318 644 1321 651 b 1340 651 1333 658 1336 654 b 1338 631 1340 642 1338 636 b 1393 617 1354 628 1375 622 l 1393 617 b 1390 617 1392 617 1392 617 b 1376 619 1386 618 1382 618 l 1376 619 b 1390 617 1381 618 1385 617 b 1393 617 1392 617 1392 617 l 1393 617 b 1411 611 1400 615 1407 615 l 1415 603 b 1428 593 1415 603 1439 597 b 1432 590 1429 592 1431 592 m 1276 413 b 1279 417 1278 414 1278 415 b 1283 414 1282 415 1281 417 b 1281 410 1282 413 1282 411 l 1278 410 b 1276 413 1278 411 1278 411 m 143 63 b 149 60 147 61 147 61 b 147 58 147 60 147 60 b 140 56 144 56 144 57 l 140 60 m 1419 61 b 1421 58 1419 60 1421 60 b 1418 58 1419 58 1419 58 l 1414 58 l 1414 60 b 1413 63 1414 61 1414 61 l 1419 63 m 338 601 b 322 585 332 596 326 590 b 319 579 321 583 319 581 b 338 601 321 589 328 597 m 1268 414 b 1269 418 1268 415 1269 417 l 1272 415 b 1271 414 1272 414 1272 414 l 1268 414 m 339 604 b 358 613 340 604 349 608 b 338 601 351 608 344 606 b 339 604 338 603 339 603 m 361 614 b 361 614 361 614 361 614 b 358 613 360 613 358 613 b 361 614 358 613 360 614 m 486 585 b 490 593 488 589 488 590 b 503 586 497 592 499 589 b 501 581 501 583 501 582 b 499 576 500 579 500 578 b 486 585 492 576 489 579 m 1336 671 b 1339 674 1338 672 1338 674 l 1346 674 l 1349 669 b 1346 668 1347 669 1347 669 b 1336 669 1342 668 1340 668 l 1336 671 m 1453 1014 b 1458 1003 1456 1011 1458 1008 b 1451 993 1456 1000 1454 997 b 1447 992 1450 992 1449 992 b 1438 1007 1446 997 1438 1000 b 1450 1014 1440 1011 1446 1011 l 1453 1014 m 1464 63 b 1488 46 1478 60 1482 56 b 1483 36 1486 43 1485 40 b 1464 36 1478 35 1471 33 b 1454 51 1457 39 1456 44 b 1464 63 1458 57 1458 58 m 1465 243 b 1454 247 1460 240 1457 242 b 1456 249 1454 247 1456 247 b 1460 251 1457 249 1458 250 b 1465 247 1464 250 1464 250 l 1465 243 m 1254 442 b 1256 442 1254 442 1256 442 b 1261 439 1260 442 1260 442 b 1261 438 1261 439 1261 438 b 1254 438 1258 438 1257 438 b 1254 442 1254 439 1254 440 m 1228 446 b 1226 453 1225 449 1225 449 b 1231 450 1228 451 1229 451 b 1229 446 1229 449 1229 447 l 1228 446 m 478 422 b 481 424 478 422 479 422 l 485 424 l 485 419 b 478 418 482 418 481 418 l 478 422 m 485 431 b 483 433 483 432 483 432 l 483 438 l 485 442 l 488 442 b 490 440 489 440 489 440 b 489 433 490 438 489 436 b 486 431 489 433 488 432 m 500 436 b 499 438 499 438 500 436 l 503 438 b 501 436 501 436 501 436 m 1622 881 b 1581 869 1613 868 1599 865 b 1579 904 1574 881 1571 894 b 1599 907 1586 906 1592 906 b 1622 881 1614 906 1621 894 m 1467 258 b 1467 257 1467 258 1467 258 b 1461 260 1464 258 1463 258 b 1463 261 1461 260 1461 261 b 1464 263 1463 263 1463 263 b 1467 261 1465 263 1465 261 l 1467 258 m 1428 981 b 1419 979 1425 981 1422 981 b 1415 983 1418 981 1417 982 b 1417 990 1415 988 1415 988 b 1422 993 1418 990 1421 992 l 1431 989 b 1428 981 1429 986 1428 983 m 1454 279 b 1456 283 1454 281 1454 282 b 1460 281 1458 282 1458 282 b 1460 275 1460 279 1460 278 b 1456 274 1458 275 1457 275 b 1454 276 1456 275 1456 275 b 1454 279 1454 278 1454 279 m 1467 774 b 1463 775 1463 772 1464 772 l 1467 774 l 1467 774 m 1478 225 b 1468 235 1474 228 1471 232 b 1476 242 1469 238 1474 239 b 1485 236 1482 242 1482 239 b 1486 233 1486 236 1486 235 b 1481 225 1485 231 1483 228 m 1486 222 b 1483 225 1482 224 1485 224 b 1486 224 1485 225 1485 224 l 1486 222 m 1496 236 b 1499 235 1497 236 1497 236 b 1496 233 1497 235 1497 235 m 149 33 l 149 32 l 149 22 b 144 19 147 21 146 21 b 140 24 143 21 142 22 b 143 32 142 26 143 29 b 144 33 144 32 144 33 m 1496 743 b 1474 747 1490 739 1476 742 b 1469 756 1471 749 1471 751 b 1482 764 1474 758 1478 761 b 1504 753 1496 764 1500 763 b 1496 743 1501 749 1501 744 m 1483 264 b 1481 260 1482 260 1483 261 l 1479 261 b 1481 264 1479 261 1481 263 m 1403 978 b 1399 975 1401 976 1400 975 b 1397 976 1399 975 1397 975 b 1399 983 1397 981 1397 981 b 1403 981 1400 982 1401 982 l 1403 978 m 1401 713 l 1406 710 b 1401 707 1404 707 1406 708 m 490 908 l 490 910 l 493 910 b 492 907 492 908 492 907 l 490 907 b 490 907 490 907 490 907 m 489 910 b 488 911 489 910 488 911 b 490 910 490 910 489 913 m 458 928 l 460 928 b 463 926 461 926 463 926 b 463 921 463 924 463 922 l 461 921 b 456 924 458 922 458 922 m 1240 897 b 1239 896 1240 897 1239 897 b 1232 897 1235 896 1235 897 l 1232 899 b 1233 901 1233 900 1233 901 b 1240 901 1236 901 1238 901 l 1240 897 m 1307 928 b 1278 929 1299 925 1283 918 b 1281 936 1276 933 1278 933 l 1288 938 b 1310 931 1296 938 1304 936 b 1307 928 1308 931 1308 929 m 1386 968 b 1385 972 1386 969 1385 971 b 1388 968 1388 971 1386 972 m 1342 950 b 1342 953 1342 951 1342 953 b 1342 954 1342 954 1342 954 l 1346 954 b 1347 953 1347 954 1347 953 b 1346 950 1347 951 1347 951 m 1333 944 b 1324 947 1331 944 1328 946 l 1324 949 l 1329 954 b 1336 953 1332 954 1333 953 l 1338 950 l 1335 944 m 1326 940 b 1324 938 1325 938 1326 939 b 1324 940 1324 939 1324 939 l 1326 940 m 1586 124 b 1578 122 1583 122 1581 122 b 1583 142 1574 132 1578 136 b 1589 142 1585 142 1588 142 b 1592 138 1590 140 1590 139 b 1586 124 1592 129 1589 128 m 460 933 b 444 926 454 929 451 926 l 444 931 b 454 938 447 935 451 935 b 460 936 456 938 457 936 l 460 933 m 1599 128 l 1600 129 b 1603 128 1600 129 1601 128 l 1603 126 l 1599 126 m 1572 110 b 1575 113 1574 111 1574 113 b 1578 110 1578 111 1576 113 b 1576 108 1578 110 1578 110 b 1572 110 1574 108 1575 108 m 1571 1040 b 1568 1036 1569 1039 1568 1038 b 1560 1039 1563 1036 1563 1036 l 1560 1040 b 1560 1046 1560 1042 1560 1043 b 1569 1043 1563 1044 1567 1043 b 1571 1040 1569 1042 1571 1040 m 1658 1047 l 1661 1050 l 1665 1050 b 1664 1046 1664 1049 1664 1047 b 1663 1043 1664 1046 1663 1044 l 1660 1043 b 1658 1044 1658 1044 1658 1044 m 1579 832 b 1561 835 1575 825 1560 829 b 1557 847 1558 839 1557 840 b 1565 854 1560 851 1563 853 b 1574 853 1568 854 1571 854 b 1581 843 1576 850 1578 846 b 1579 832 1581 839 1579 835 m 1479 1006 b 1474 1025 1474 1010 1474 1015 b 1481 1032 1475 1028 1478 1029 l 1486 1032 b 1496 1021 1490 1029 1493 1025 b 1497 1011 1499 1018 1499 1015 b 1496 1008 1497 1010 1496 1010 b 1479 1006 1492 1007 1483 1004 m 1582 1040 b 1578 1043 1581 1042 1581 1043 b 1582 1051 1579 1049 1579 1049 l 1583 1051 b 1593 1049 1589 1051 1590 1051 l 1593 1046 b 1582 1040 1589 1042 1588 1040 m 1582 1036 b 1583 1039 1582 1036 1583 1038 b 1585 1038 1583 1039 1585 1038 b 1583 1036 1585 1036 1583 1036 l 1582 1036 m 1633 1044 b 1635 1047 1633 1046 1635 1046 b 1642 1044 1638 1046 1639 1046 l 1642 1040 b 1640 1036 1642 1039 1642 1038 l 1639 1036 b 1633 1044 1635 1038 1635 1040 m 1660 1063 b 1640 1051 1653 1058 1647 1054 l 1628 1058 b 1629 1060 1628 1058 1628 1060 b 1638 1069 1632 1064 1633 1067 b 1643 1069 1639 1069 1642 1069 b 1656 1069 1647 1069 1651 1069 b 1660 1063 1657 1067 1658 1064 m 1526 192 b 1528 189 1528 190 1526 192 l 1526 189 m 1499 239 b 1499 247 1499 242 1499 244 b 1508 251 1503 249 1506 250 b 1519 250 1513 251 1517 250 b 1526 238 1522 246 1525 244 b 1521 232 1525 235 1524 233 b 1507 229 1517 231 1511 231 b 1499 239 1504 233 1501 236 m 1539 817 b 1539 824 1539 819 1539 821 l 1554 832 b 1574 819 1563 831 1569 828 l 1574 814 b 1556 801 1569 807 1563 807 b 1539 817 1547 806 1543 808 m 1531 199 b 1526 196 1529 197 1528 196 l 1524 196 l 1521 199 b 1522 201 1522 199 1522 200 b 1524 204 1522 203 1524 203 l 1529 204 b 1531 201 1529 203 1529 203 m 1525 788 b 1518 778 1521 785 1519 782 b 1478 794 1499 776 1485 781 b 1490 810 1479 803 1485 806 b 1521 800 1500 810 1513 804 b 1525 788 1522 796 1524 792 m 1510 1017 b 1508 1011 1510 1014 1510 1014 b 1503 1014 1506 1011 1504 1013 l 1503 1014 b 1504 1018 1503 1015 1503 1017 l 1508 1018 b 1510 1017 1510 1018 1510 1017 m 1561 181 b 1557 178 1560 178 1561 178 b 1556 178 1557 178 1557 178 l 1556 179 b 1557 182 1556 181 1557 181 l 1560 182 m 1522 1008 b 1517 1010 1521 1008 1518 1010 b 1531 1043 1507 1024 1521 1036 b 1538 1040 1533 1043 1535 1042 b 1539 1031 1539 1038 1539 1033 b 1531 1024 1536 1028 1533 1025 b 1528 1011 1535 1017 1532 1017 b 1522 1008 1526 1010 1524 1010 m 1560 151 b 1560 156 1560 153 1560 154 l 1561 156 b 1564 153 1563 154 1563 154 b 1561 151 1563 153 1563 153 m 1544 799 b 1539 797 1543 799 1542 799 l 1539 800 b 1539 800 1539 800 1539 800 b 1540 804 1539 801 1540 803 l 1546 804 b 1547 803 1546 804 1546 803 b 1544 799 1546 799 1547 800 m 1550 1026 b 1544 1022 1547 1024 1549 1024 b 1543 1024 1544 1022 1544 1024 b 1546 1028 1544 1025 1546 1026 l 1550 1026 m 1488 257 b 1486 254 1488 256 1488 256 b 1482 256 1483 254 1485 254 b 1485 260 1483 257 1483 258 b 1488 257 1485 258 1486 257 m 203 1022 b 190 1028 199 1024 194 1026 b 192 1042 190 1035 189 1036 b 197 1043 193 1043 194 1043 b 214 1036 207 1043 210 1040 b 214 1029 214 1032 215 1032 b 203 1022 211 1025 210 1022 m 213 840 b 214 838 213 840 214 839 b 210 831 213 835 211 833 b 217 828 213 831 215 829 b 218 818 218 825 219 821 l 215 815 b 206 814 213 815 208 815 b 200 818 204 815 201 817 b 200 839 199 825 199 832 b 203 843 200 840 201 842 b 213 840 206 842 208 842 m 228 824 b 228 822 228 824 228 822 b 222 819 226 821 224 821 l 219 824 b 222 828 219 825 221 826 b 228 824 226 828 226 828 m 186 161 b 183 165 185 163 185 164 b 188 174 185 168 186 171 b 196 165 193 172 194 169 b 190 157 194 161 193 160 b 186 161 188 158 188 160 m 224 1021 b 214 1026 218 1021 217 1024 b 215 1029 215 1028 215 1028 b 221 1032 217 1031 219 1031 b 225 1029 222 1031 224 1031 l 232 1032 l 232 1029 b 232 1028 232 1028 232 1028 b 224 1021 226 1026 226 1024 m 151 126 b 151 131 150 129 150 128 b 156 129 153 131 154 131 l 156 129 b 151 126 154 128 154 128 m 140 900 b 156 893 147 899 153 896 b 156 882 156 889 156 886 b 151 875 154 879 153 876 b 139 874 147 874 143 874 b 125 886 132 875 128 881 b 140 900 129 894 133 894 m 185 840 b 183 839 185 840 183 839 l 179 839 b 181 842 181 839 181 840 b 185 840 182 842 183 842 m 174 1039 b 147 1036 164 1035 156 1029 b 144 1046 146 1039 144 1042 b 146 1050 144 1047 146 1049 l 149 1051 b 172 1044 158 1053 169 1050 b 174 1040 174 1043 174 1043 l 174 1039 m 188 156 b 193 150 192 154 193 154 b 192 147 193 149 193 149 b 186 153 188 149 188 149 b 188 156 188 154 188 156 m 250 232 b 249 233 249 232 249 233 l 249 235 b 250 233 249 235 250 235 m 140 131 b 136 131 139 131 138 131 l 136 132 b 135 135 136 133 135 135 l 138 138 l 140 138 b 143 135 142 138 142 136 l 143 133 b 140 131 142 132 140 132 m 297 717 b 296 718 297 718 296 718 b 299 725 296 724 296 722 b 303 724 300 724 301 724 b 303 718 303 722 303 719 b 301 717 303 718 301 717 m 296 260 b 293 261 294 260 294 261 b 293 264 293 263 293 263 b 297 260 297 264 296 264 l 296 260 m 228 768 b 228 783 219 772 222 778 b 239 776 233 782 236 781 l 239 774 b 228 768 235 771 233 768 m 243 800 b 239 799 242 800 240 799 b 236 800 239 799 238 800 l 236 801 b 240 804 238 803 238 803 b 243 800 243 803 242 804 m 347 724 b 353 722 349 724 350 724 b 351 718 351 721 351 719 b 346 719 350 719 347 719 l 346 721 m 353 964 b 349 963 351 964 350 963 b 343 968 346 965 344 967 b 346 975 344 972 344 972 l 351 975 b 354 971 353 974 354 972 b 353 964 354 965 354 965 m 364 981 b 361 975 363 978 363 978 b 353 979 356 975 356 976 l 353 981 b 358 985 354 982 356 983 b 364 981 360 983 361 982 m 358 967 b 360 968 358 967 360 967 b 364 967 361 968 363 967 l 364 967 b 363 963 364 965 363 964 l 358 967 m 318 981 b 311 982 317 982 314 982 b 306 988 310 983 307 986 l 306 989 l 311 994 b 324 990 318 994 318 992 b 325 989 325 990 325 990 b 318 981 322 986 321 983 m 322 982 b 321 983 322 982 321 982 b 322 985 321 983 321 983 l 324 985 b 322 982 324 983 324 983 m 104 71 b 90 71 99 69 94 68 b 99 82 90 79 92 79 b 104 81 100 82 103 81 b 104 71 104 76 104 74 m 133 11 b 142 15 136 13 139 14 b 143 7 142 13 143 10 b 140 1 142 6 142 3 b 135 0 139 1 136 0 b 131 7 132 3 132 3 b 113 36 122 -1 86 17 b 133 11 125 35 135 25 m 76 68 b 99 46 94 69 103 61 l 96 44 b 88 43 92 46 90 44 b 72 56 85 47 76 53 b 72 64 72 58 72 61 l 76 68 m 81 949 l 79 951 b 81 956 79 953 81 954 b 88 954 83 956 85 956 b 88 953 88 954 88 953 l 88 949 m 78 957 b 71 953 76 953 76 953 b 72 957 71 954 71 956 l 72 957 b 78 957 74 957 76 957 m 57 983 b 42 990 50 983 44 986 b 46 1003 43 994 44 999 b 54 1007 49 1004 51 1006 b 64 1001 57 1006 60 1004 b 61 986 64 994 64 993 b 57 983 60 986 58 985 m 128 32 b 126 36 126 33 126 33 b 125 39 126 36 125 38 l 126 42 b 133 40 129 42 131 40 l 133 38 b 128 32 131 35 131 33 m 74 994 b 78 989 75 993 76 990 b 74 985 76 986 76 986 l 72 986 b 68 990 69 988 69 989 b 71 994 69 992 69 993 m 410 951 l 406 951 l 406 954 l 410 954 m 68 1031 b 69 1032 68 1031 69 1032 b 75 1029 74 1032 74 1032 b 76 1025 75 1028 75 1026 b 74 1025 75 1025 74 1025 l 68 1025 l 68 1031 m 356 674 b 361 682 358 676 360 679 b 376 675 369 681 372 678 l 376 672 l 369 661 b 358 668 364 663 360 664 b 356 674 357 669 357 671 m 72 964 b 67 954 71 960 69 957 b 46 958 58 951 49 950 b 43 975 43 963 43 969 l 47 976 b 69 968 54 974 63 972 m 125 900 b 118 906 121 899 118 901 b 119 907 118 906 119 907 b 128 906 122 907 125 906 b 129 903 128 906 128 904 b 125 900 128 900 128 901 m 122 922 b 121 929 122 925 121 926 b 131 936 125 931 128 933 b 143 926 135 935 143 931 b 143 924 143 925 143 925 b 140 919 143 922 142 921 b 122 922 133 917 128 918 m 63 1035 b 51 1043 58 1038 56 1040 l 51 1046 l 53 1047 b 60 1050 56 1049 57 1049 b 72 1047 64 1049 68 1047 b 72 1044 72 1046 72 1046 b 65 1035 71 1042 68 1038 m 121 1044 b 100 1047 114 1040 107 1043 b 101 1050 101 1049 101 1050 l 114 1057 b 122 1054 117 1056 119 1054 b 121 1044 124 1049 124 1047 m 101 928 l 100 931 b 103 932 101 931 103 931 b 106 931 104 931 104 931 b 104 928 106 929 104 929 m 96 946 b 96 950 96 947 96 949 l 100 949 l 100 946 b 99 944 99 946 99 944 l 96 944 b 96 946 96 944 96 946 m 92 897 b 92 901 90 899 90 899 l 94 900 l 94 897 l 92 897 m 131 110 b 117 75 131 94 143 76 b 108 79 114 76 111 78 l 108 93 b 119 100 113 96 114 99 b 121 113 118 106 118 108 b 128 113 124 113 125 113 b 131 110 129 111 131 111 m 99 975 b 93 978 94 976 94 975 l 93 983 b 100 978 97 982 97 981 b 99 975 99 976 99 976 m 94 907 l 90 910 l 90 910 b 93 914 92 911 92 913 l 96 911 b 94 907 96 910 94 908 "},"\"":{"ha":1389,"x_min":0,"x_max":0,"o":""},"#":{"ha":1389,"x_min":0,"x_max":0,"o":""},"$":{"ha":1389,"x_min":0,"x_max":0,"o":""},"%":{"ha":1389,"x_min":0,"x_max":0,"o":""},"&":{"ha":1389,"x_min":0,"x_max":0,"o":""},"(":{"ha":1389,"x_min":0,"x_max":0,"o":""},")":{"ha":1389,"x_min":0,"x_max":0,"o":""},"*":{"ha":1389,"x_min":0,"x_max":0,"o":""},"+":{"ha":1389,"x_min":0,"x_max":0,"o":""},",":{"ha":1389,"x_min":0,"x_max":0,"o":""},"-":{"ha":1389,"x_min":0,"x_max":0,"o":""},".":{"ha":1389,"x_min":0,"x_max":0,"o":""},"/":{"ha":1389,"x_min":0,"x_max":0,"o":""},":":{"ha":1389,"x_min":0,"x_max":0,"o":""},";":{"ha":1389,"x_min":0,"x_max":0,"o":""},"<":{"ha":1389,"x_min":0,"x_max":0,"o":""},"=":{"ha":1389,"x_min":0,"x_max":0,"o":""},">":{"ha":1389,"x_min":0,"x_max":0,"o":""},"?":{"ha":1982,"x_min":0,"x_max":0,"o":"m 1249 135 b 1254 135 1250 135 1253 135 b 1254 129 1254 131 1251 131 b 1254 126 1254 128 1254 128 l 1250 126 b 1246 131 1249 129 1249 129 l 1246 133 l 1249 135 m 431 376 l 433 376 l 433 375 b 432 374 433 375 432 374 b 429 375 431 374 431 375 m 500 151 b 517 150 508 151 513 151 l 517 149 l 514 142 b 497 143 508 140 501 139 b 494 146 496 144 496 144 b 500 151 497 149 499 150 m 1415 304 b 1415 296 1417 301 1417 300 l 1411 296 b 1410 297 1411 297 1411 297 l 1410 304 l 1413 306 b 1415 304 1414 304 1414 306 m 600 190 b 608 186 603 189 606 188 b 610 183 610 186 610 185 b 600 178 607 179 604 181 b 600 164 601 172 603 168 b 568 156 589 160 583 154 l 564 161 b 569 186 560 172 564 179 b 594 185 581 189 585 188 b 600 190 596 189 596 188 m 1257 128 b 1261 126 1258 128 1260 128 l 1261 125 b 1261 124 1261 125 1261 124 l 1257 124 m 488 136 b 496 135 490 136 493 135 b 497 133 497 133 497 133 b 494 129 496 132 496 131 b 485 128 492 128 488 128 l 482 131 b 488 136 485 133 485 135 m 1383 72 b 1396 71 1389 74 1392 74 l 1396 69 b 1389 56 1396 63 1393 60 b 1381 57 1386 56 1383 57 l 1381 69 b 1365 69 1376 68 1371 68 b 1372 100 1357 82 1364 94 l 1376 100 b 1383 72 1379 92 1388 86 m 1388 331 b 1367 331 1379 329 1376 326 b 1363 344 1365 333 1361 340 b 1372 357 1365 350 1369 353 b 1390 344 1379 356 1388 351 b 1388 331 1392 339 1390 336 m 1401 64 b 1406 64 1403 64 1404 64 b 1406 58 1406 60 1407 60 b 1401 60 1404 58 1403 60 l 1401 61 b 1401 64 1401 63 1401 64 m 1335 100 b 1342 100 1338 100 1340 100 b 1347 94 1344 97 1346 96 b 1336 86 1346 89 1342 86 b 1328 94 1333 89 1331 90 b 1335 100 1331 97 1332 99 m 1301 392 b 1300 390 1301 390 1300 390 b 1296 392 1297 390 1297 390 b 1292 403 1292 394 1290 399 b 1301 392 1303 404 1307 399 m 1311 389 b 1315 388 1313 389 1314 389 b 1307 376 1315 381 1314 378 b 1297 385 1303 379 1300 381 b 1297 388 1297 385 1297 386 b 1306 390 1300 388 1303 389 b 1311 389 1307 390 1310 390 m 1276 122 b 1281 118 1278 121 1279 119 b 1279 114 1279 117 1279 115 l 1278 114 b 1275 119 1275 115 1275 115 m 539 149 b 535 153 535 150 536 150 l 540 151 l 540 150 b 539 149 540 149 539 149 m 182 33 b 197 21 189 31 193 26 b 196 3 199 13 199 7 b 182 1 190 1 188 1 b 174 28 179 10 172 15 b 182 33 176 29 179 31 m 204 185 b 203 183 204 185 203 185 b 200 183 201 183 201 183 b 196 189 199 185 197 185 b 197 190 197 189 197 189 b 203 188 200 189 201 189 l 204 188 l 204 185 m 207 199 b 204 196 206 197 206 197 b 203 197 204 197 203 197 b 204 203 203 199 203 201 b 207 201 204 203 206 201 l 207 199 m 211 35 b 215 32 215 35 214 35 b 211 19 218 26 214 22 b 203 22 206 19 206 21 l 203 24 b 204 28 203 25 203 26 l 211 35 m 201 811 b 219 801 210 811 215 807 b 215 781 219 793 222 789 b 208 779 214 781 211 781 b 193 797 199 782 196 789 b 201 811 196 803 196 807 m 146 72 b 149 72 147 72 147 72 l 146 69 b 144 71 146 69 144 71 l 144 72 b 146 72 144 72 146 72 m 415 376 l 417 376 b 415 375 415 375 417 376 m 151 54 b 153 51 151 54 153 53 l 151 50 l 147 50 b 146 53 146 51 146 51 b 147 54 146 53 147 54 m 158 100 b 167 93 161 97 164 96 b 167 82 167 86 167 86 b 149 74 161 78 158 75 b 136 97 142 79 133 85 b 153 103 143 97 150 100 b 147 111 149 104 147 107 b 153 121 149 115 150 118 b 165 111 160 121 167 117 l 165 107 b 157 100 163 104 160 103 l 158 100 m 178 146 b 171 150 174 143 172 146 b 175 154 172 151 174 153 b 181 147 182 154 183 151 b 178 146 179 146 181 147 m 163 24 b 167 24 164 24 165 24 l 167 21 l 167 19 b 163 21 165 19 164 21 l 163 24 m 222 217 b 231 210 226 215 228 214 b 229 208 229 210 229 208 b 228 207 229 208 228 207 b 221 210 225 208 224 210 b 222 217 221 213 221 214 m 368 86 b 381 82 374 86 378 85 b 382 74 382 79 382 78 b 372 68 379 71 378 69 b 367 74 371 69 369 72 b 367 86 365 78 365 82 b 368 86 368 86 368 86 m 364 71 b 363 67 364 68 364 68 b 360 72 360 68 360 68 l 364 72 m 379 343 b 371 343 375 340 374 340 b 369 350 369 344 369 347 b 372 350 371 350 371 350 b 376 350 374 350 375 350 b 381 343 379 347 381 347 b 379 343 381 343 379 343 m 339 326 l 342 326 l 340 324 l 339 324 m 404 90 b 407 86 406 89 407 88 b 404 79 407 82 407 81 b 394 81 401 78 397 79 b 394 90 393 85 393 86 l 399 90 m 257 38 b 264 31 261 36 263 35 b 261 21 263 28 263 25 b 235 19 253 18 246 17 l 235 21 l 235 24 b 257 38 232 35 247 35 m 231 226 b 231 231 231 228 231 229 b 233 229 232 229 232 229 b 231 226 232 228 231 228 m 315 58 b 315 44 315 53 317 51 b 314 43 315 44 314 44 b 296 46 308 42 300 46 l 290 61 b 300 67 293 63 297 64 b 315 58 308 65 311 61 m 265 765 b 268 761 267 764 267 764 l 268 757 b 263 757 265 757 265 756 b 260 757 263 757 261 757 b 265 765 260 763 261 763 m 288 726 b 290 724 288 725 289 725 b 289 721 290 722 289 722 b 286 722 288 721 288 722 b 288 726 286 725 286 724 m 271 242 b 271 247 271 243 271 244 l 274 244 l 274 242 l 271 242 m 272 1015 b 281 1008 276 1014 278 1013 b 267 1007 276 1003 272 1004 l 267 1008 b 272 1015 269 1011 271 1014 m 319 579 b 319 563 318 574 318 568 b 319 579 317 567 317 572 m 1599 115 b 1586 113 1596 114 1590 111 b 1583 115 1585 114 1583 114 b 1588 124 1583 121 1585 121 b 1599 122 1592 122 1594 122 b 1599 115 1599 119 1599 118 m 1650 36 b 1653 32 1651 35 1653 33 b 1651 22 1653 26 1653 25 b 1649 21 1651 22 1650 22 b 1643 24 1647 22 1644 22 b 1640 32 1642 26 1640 29 b 1644 36 1642 33 1643 35 m 1635 24 b 1636 25 1635 25 1636 25 l 1640 25 b 1635 19 1640 19 1639 18 l 1635 24 m 1594 29 b 1600 28 1596 29 1597 29 b 1599 24 1599 26 1599 25 l 1593 24 l 1593 25 b 1594 29 1593 28 1593 28 m 1588 99 b 1588 101 1588 99 1588 100 l 1590 101 b 1588 99 1590 100 1589 99 l 1588 99 m 1529 24 b 1526 29 1526 25 1525 25 b 1531 28 1528 28 1529 28 b 1529 24 1529 24 1531 25 m 1550 157 b 1540 151 1547 154 1544 153 b 1536 154 1539 153 1538 153 l 1536 157 b 1542 160 1538 158 1539 158 b 1550 157 1546 160 1547 160 m 1565 25 b 1582 25 1571 28 1575 28 b 1583 21 1582 24 1582 22 b 1571 15 1578 21 1574 18 b 1568 17 1569 17 1569 17 b 1565 22 1568 21 1568 21 b 1557 10 1563 18 1561 14 l 1550 11 b 1539 24 1543 14 1542 17 b 1542 33 1540 28 1540 31 b 1546 36 1543 35 1544 35 b 1565 25 1558 36 1560 32 m 1529 190 b 1529 193 1529 190 1529 192 b 1533 192 1531 193 1532 192 b 1531 188 1532 189 1532 189 b 1529 189 1531 188 1529 189 l 1529 190 m 1714 1001 b 1713 990 1721 999 1717 993 b 1710 992 1713 990 1711 992 l 1710 997 b 1714 1001 1711 999 1713 1000 m 1689 953 b 1686 954 1688 954 1688 954 b 1688 957 1688 956 1688 957 b 1690 956 1689 957 1689 956 b 1689 953 1690 954 1689 954 m 1688 950 b 1696 947 1692 950 1694 950 b 1697 943 1696 946 1697 944 b 1693 938 1696 942 1694 940 b 1682 938 1690 938 1686 936 b 1681 940 1682 939 1681 939 b 1683 950 1682 943 1683 947 b 1688 950 1685 950 1686 950 m 1696 1033 b 1713 1025 1706 1033 1707 1031 b 1708 994 1713 1011 1710 1006 b 1689 988 1701 993 1696 990 b 1682 1015 1685 994 1681 1000 b 1663 1007 1671 1014 1669 1010 b 1660 1010 1661 1008 1661 1008 b 1663 1018 1663 1014 1665 1015 b 1656 1032 1661 1024 1658 1028 b 1665 1046 1658 1036 1663 1042 b 1693 1042 1672 1043 1686 1043 b 1696 1033 1693 1036 1693 1036 m 1526 181 b 1525 178 1526 181 1526 179 b 1521 182 1521 179 1522 179 b 1522 183 1521 182 1522 183 l 1525 183 m 1643 935 b 1640 938 1640 936 1642 935 l 1642 938 b 1644 938 1643 938 1644 938 b 1643 935 1644 936 1644 936 m 1413 313 b 1413 313 1413 313 1413 313 b 1408 314 1410 313 1410 313 b 1410 317 1408 315 1408 315 b 1413 317 1410 317 1411 317 b 1413 313 1413 315 1413 314 m 1675 989 b 1674 981 1676 985 1678 983 b 1649 964 1668 971 1660 968 b 1636 983 1642 968 1638 974 b 1644 999 1642 989 1640 993 b 1658 1006 1650 1001 1654 1003 b 1663 1004 1660 1004 1661 1004 b 1675 989 1667 996 1667 990 m 1683 975 b 1678 976 1679 975 1681 975 b 1679 979 1679 976 1679 978 b 1683 976 1681 978 1682 978 b 1683 975 1683 976 1683 976 m 1682 956 b 1675 960 1679 957 1678 958 b 1676 965 1676 963 1676 964 b 1679 968 1678 967 1679 967 b 1688 964 1685 968 1685 968 b 1688 960 1689 963 1689 963 b 1685 956 1686 958 1686 957 m 1631 74 b 1651 68 1640 71 1646 75 b 1656 57 1654 65 1656 61 b 1638 51 1653 47 1646 49 b 1632 42 1636 46 1635 46 b 1617 18 1631 39 1639 19 b 1606 18 1611 21 1611 21 l 1600 21 b 1603 25 1600 25 1601 24 b 1601 36 1603 25 1600 33 b 1610 47 1603 40 1610 42 b 1608 58 1611 50 1610 53 b 1599 63 1604 58 1603 60 b 1600 74 1599 68 1599 69 b 1626 74 1610 75 1618 74 b 1629 79 1628 78 1628 78 l 1631 79 b 1631 74 1631 75 1629 75 m 1497 40 b 1517 38 1504 40 1511 39 l 1518 36 b 1511 14 1515 31 1515 21 b 1489 8 1504 11 1500 8 b 1481 21 1485 13 1482 14 b 1483 36 1481 26 1481 32 b 1497 40 1488 38 1493 39 m 1426 578 b 1428 581 1426 579 1428 579 l 1428 581 b 1425 578 1426 579 1426 579 l 1426 578 m 1424 568 b 1425 572 1424 569 1425 571 l 1424 572 b 1422 567 1422 569 1422 568 b 1424 568 1422 567 1424 568 m 1421 572 b 1424 574 1422 572 1422 574 b 1421 576 1422 575 1424 575 l 1421 572 m 1421 586 b 1419 582 1421 585 1419 583 b 1421 582 1419 582 1421 582 b 1424 585 1422 582 1422 583 l 1424 586 b 1421 586 1422 586 1421 586 m 1417 597 b 1414 600 1417 600 1418 599 b 1417 597 1415 599 1415 597 m 1417 567 l 1414 564 b 1415 561 1414 564 1414 563 l 1417 561 m 1400 535 b 1415 547 1408 536 1413 540 b 1414 550 1415 550 1415 549 b 1400 535 1410 544 1404 540 m 1389 532 b 1397 538 1392 533 1394 536 l 1394 538 b 1390 535 1393 538 1392 536 b 1389 532 1390 533 1389 532 m 1382 529 b 1389 535 1386 531 1388 531 l 1388 535 b 1379 531 1385 533 1382 532 l 1379 529 l 1382 529 m 1375 524 b 1385 529 1376 525 1386 529 b 1375 526 1382 529 1379 528 b 1375 524 1375 525 1375 525 m 1363 531 b 1375 538 1364 532 1378 536 b 1363 531 1369 535 1365 535 m 1364 521 b 1371 525 1369 521 1369 524 b 1364 521 1368 524 1367 522 l 1364 521 m 1339 506 b 1363 515 1350 507 1357 508 l 1361 515 b 1339 506 1353 511 1344 511 m 1319 497 b 1349 506 1331 497 1343 501 l 1347 506 b 1319 497 1339 501 1328 500 l 1319 497 m 1315 503 b 1300 496 1310 500 1306 499 b 1319 503 1307 497 1315 499 l 1315 503 m 1306 508 b 1299 504 1303 507 1301 506 b 1311 507 1303 506 1307 507 l 1311 508 l 1306 508 m 1268 485 b 1299 493 1278 486 1293 488 l 1296 493 b 1268 485 1286 490 1276 488 m 1279 496 b 1278 494 1279 496 1278 496 l 1283 494 l 1283 496 m 1263 499 b 1279 501 1268 500 1274 501 l 1269 501 b 1263 500 1267 501 1265 500 m 1238 485 b 1256 489 1243 486 1250 488 l 1244 489 l 1238 486 l 1238 485 m 1236 497 b 1251 500 1242 497 1246 499 b 1249 501 1250 500 1249 500 b 1236 497 1244 500 1240 499 l 1236 497 m 1296 507 b 1275 503 1289 506 1282 504 l 1275 503 b 1299 507 1286 501 1293 503 m 1233 507 b 1315 519 1264 507 1290 514 l 1315 519 l 1310 519 b 1233 508 1285 515 1258 513 m 1324 515 b 1319 514 1322 515 1321 514 l 1325 515 m 1336 515 l 1340 515 b 1344 521 1342 517 1343 519 m 1356 524 b 1353 521 1354 522 1353 522 b 1357 524 1354 522 1356 522 m 1383 547 b 1372 540 1381 546 1376 543 b 1383 547 1378 542 1383 544 m 1225 533 b 1232 511 1228 526 1231 518 b 1274 517 1246 513 1260 515 b 1325 522 1290 518 1308 521 b 1403 581 1356 532 1390 553 b 1393 593 1400 585 1397 589 b 1360 600 1385 599 1371 599 b 1251 624 1324 608 1286 613 b 1225 533 1253 594 1243 542 m 1265 626 b 1251 631 1261 628 1256 629 b 1265 626 1254 628 1263 626 m 1253 635 b 1260 636 1256 636 1257 636 l 1253 638 m 1281 633 b 1261 638 1278 636 1268 638 b 1281 633 1267 633 1275 635 m 1322 633 b 1279 639 1308 635 1294 638 b 1324 629 1294 636 1310 632 b 1322 633 1324 631 1324 632 m 1285 629 b 1308 625 1293 628 1300 626 b 1285 629 1303 628 1293 629 m 1314 617 b 1292 624 1308 621 1300 622 b 1314 617 1299 621 1306 619 m 1326 617 b 1319 618 1324 618 1322 618 b 1326 617 1321 617 1324 617 m 1313 626 b 1328 624 1315 625 1324 622 b 1313 626 1322 625 1318 626 m 1336 621 b 1328 622 1333 622 1331 622 b 1336 621 1331 621 1333 619 m 1333 631 b 1332 629 1333 629 1332 629 b 1344 626 1336 628 1340 628 b 1333 631 1340 628 1336 629 m 1343 624 b 1349 624 1344 622 1346 622 b 1343 624 1347 624 1344 624 m 1361 607 b 1340 611 1354 608 1347 610 b 1361 607 1344 608 1357 604 m 1375 617 b 1350 621 1365 618 1361 621 b 1367 615 1354 618 1360 617 b 1365 618 1367 617 1365 617 b 1375 617 1368 617 1371 615 m 1376 604 b 1363 610 1372 607 1368 608 b 1376 604 1365 607 1372 604 m 1383 611 b 1375 614 1381 614 1379 614 b 1383 611 1378 613 1381 613 m 1392 603 b 1386 606 1390 604 1389 606 b 1392 603 1388 604 1390 604 m 1389 613 b 1403 607 1393 610 1397 608 b 1397 613 1401 610 1399 611 m 1403 582 b 1406 585 1404 582 1404 583 l 1403 589 b 1397 590 1401 590 1399 590 b 1403 582 1400 588 1401 585 m 1406 564 b 1404 564 1404 564 1404 564 b 1401 560 1403 563 1401 563 m 1399 567 b 1401 569 1401 568 1400 568 b 1399 567 1400 568 1400 568 m 1397 558 b 1399 560 1399 560 1399 558 b 1397 558 1399 560 1397 558 m 1390 547 b 1397 556 1393 550 1397 553 b 1389 547 1393 553 1392 551 l 1390 547 m 1401 550 b 1394 543 1400 547 1397 546 b 1403 549 1397 546 1400 547 b 1401 550 1403 549 1403 549 m 1410 610 b 1401 613 1407 611 1404 611 b 1411 606 1404 608 1406 607 b 1410 610 1411 607 1411 608 m 1411 575 b 1411 578 1413 576 1411 575 b 1411 575 1411 576 1411 576 m 1411 564 b 1411 558 1411 561 1411 560 b 1414 560 1411 558 1413 558 l 1414 563 b 1411 564 1413 563 1413 563 m 1414 589 b 1411 590 1413 589 1411 590 b 1410 589 1411 590 1410 589 b 1413 586 1411 589 1413 588 b 1414 589 1414 588 1414 589 m 1426 589 b 1424 590 1425 589 1425 590 b 1422 589 1424 589 1422 589 b 1424 586 1422 588 1422 588 l 1424 586 b 1426 589 1426 588 1425 586 m 1424 599 b 1419 599 1422 599 1421 599 b 1425 594 1421 596 1421 596 b 1425 597 1425 596 1425 596 b 1424 599 1425 597 1424 597 m 1219 846 b 1214 806 1217 838 1210 813 b 1310 815 1246 808 1278 811 b 1346 822 1321 817 1339 815 b 1219 846 1306 828 1265 844 m 1239 847 b 1219 849 1232 847 1226 849 b 1239 847 1224 847 1235 846 m 1239 854 b 1228 857 1235 856 1232 856 b 1239 854 1231 854 1236 854 m 1250 849 b 1232 851 1244 850 1238 850 b 1250 849 1236 850 1246 847 m 1269 849 b 1258 849 1265 849 1261 849 b 1269 849 1261 847 1265 847 m 1281 850 b 1244 857 1268 853 1257 854 b 1281 850 1251 853 1272 847 m 1319 832 b 1294 839 1314 836 1304 839 l 1319 832 m 1315 840 b 1296 844 1308 842 1301 843 b 1315 840 1300 842 1310 839 m 1343 833 b 1333 836 1340 835 1338 835 b 1343 833 1336 833 1340 832 m 1351 819 b 1340 817 1347 818 1344 818 l 1340 817 b 1356 817 1349 817 1346 817 m 1360 825 b 1354 826 1358 826 1358 826 b 1360 825 1357 825 1356 825 m 1364 832 b 1356 833 1361 831 1363 833 b 1363 828 1358 832 1360 829 b 1367 828 1364 828 1365 828 l 1367 831 b 1364 832 1367 831 1365 832 m 1364 824 b 1367 822 1367 822 1364 824 b 1364 824 1365 824 1367 824 m 1363 813 b 1364 814 1364 813 1367 811 l 1363 814 b 1363 813 1363 813 1363 813 m 1358 811 b 1358 813 1360 813 1360 811 l 1358 811 m 1342 807 b 1353 810 1346 807 1351 807 l 1351 810 b 1342 808 1349 808 1346 808 l 1342 807 m 1336 811 b 1347 814 1342 811 1344 811 l 1346 814 b 1336 811 1343 813 1339 813 m 1321 806 b 1332 808 1325 807 1328 807 l 1328 808 b 1321 807 1326 808 1324 807 l 1321 806 m 1318 807 l 1311 807 b 1306 806 1310 807 1308 806 m 1311 800 b 1342 803 1321 800 1332 801 b 1332 804 1339 803 1336 803 b 1311 800 1325 803 1318 801 m 1265 797 b 1296 801 1275 799 1286 800 b 1292 801 1294 801 1293 801 b 1265 797 1283 800 1274 799 l 1265 797 m 1279 794 b 1296 796 1285 794 1290 796 l 1286 796 l 1279 794 m 1253 804 b 1293 807 1267 804 1281 806 l 1293 808 l 1286 808 l 1253 804 m 1235 796 b 1261 800 1244 797 1253 799 l 1257 800 b 1235 797 1249 799 1242 799 l 1235 796 m 1232 803 b 1243 804 1236 803 1240 804 l 1239 804 l 1232 803 m 1231 800 b 1214 797 1225 799 1219 797 l 1214 796 l 1215 796 b 1236 800 1222 797 1229 799 m 1214 793 b 1228 793 1217 792 1224 792 l 1214 793 m 1175 383 b 1164 386 1171 385 1168 385 l 1164 383 l 1175 383 m 1207 379 b 1169 388 1196 382 1185 386 b 1207 379 1176 383 1199 376 m 1214 372 b 1213 374 1214 372 1214 372 b 1214 375 1213 374 1214 374 l 1206 375 b 1214 372 1208 375 1211 374 m 1208 369 b 1218 367 1210 367 1214 365 b 1208 369 1214 368 1211 368 m 1232 367 b 1218 374 1228 369 1222 372 b 1232 367 1221 369 1228 369 m 1226 367 b 1242 360 1229 363 1236 361 b 1226 367 1236 363 1232 364 m 1247 356 l 1240 358 l 1250 350 m 1239 353 b 1250 346 1242 350 1246 347 b 1239 353 1247 349 1243 350 m 1261 332 b 1256 336 1258 335 1258 335 b 1261 332 1257 335 1258 333 m 1261 347 b 1265 343 1263 344 1263 344 m 1271 332 b 1265 340 1269 336 1268 339 b 1271 332 1267 336 1268 335 m 1268 321 b 1272 313 1269 318 1271 315 b 1268 321 1271 317 1271 319 m 1276 328 b 1274 332 1276 329 1275 331 b 1276 328 1275 329 1275 329 m 1281 317 b 1276 322 1279 321 1279 321 l 1281 317 m 1283 296 b 1281 300 1282 297 1281 299 b 1279 292 1281 297 1279 294 b 1282 293 1281 293 1281 293 b 1283 296 1282 294 1282 296 m 1282 311 b 1285 304 1282 307 1283 307 b 1283 311 1285 308 1285 308 m 1286 297 b 1289 293 1288 294 1286 296 b 1288 297 1289 294 1288 296 m 1289 297 b 1290 296 1289 297 1290 296 b 1289 303 1290 300 1290 301 m 1288 290 b 1286 285 1286 288 1286 286 l 1288 285 l 1288 286 b 1289 290 1288 288 1288 289 m 1285 293 b 1288 292 1286 292 1285 293 l 1285 293 m 1285 283 b 1285 286 1285 285 1285 285 l 1285 283 m 1288 279 b 1290 288 1292 282 1290 282 l 1289 288 b 1285 279 1288 285 1286 282 b 1285 279 1285 279 1285 279 b 1283 278 1285 279 1283 279 b 1285 279 1283 279 1285 279 b 1288 279 1288 279 1285 278 m 1281 276 b 1281 278 1282 278 1281 278 b 1281 276 1281 278 1281 276 m 1278 310 b 1281 304 1278 307 1279 306 b 1278 310 1279 307 1279 307 m 1278 303 b 1279 299 1278 301 1278 300 l 1279 299 l 1279 301 l 1278 303 m 1278 282 l 1276 282 b 1275 278 1276 281 1275 279 b 1278 278 1276 278 1276 278 m 1274 269 b 1275 271 1276 271 1275 271 b 1274 271 1275 271 1274 271 l 1274 269 m 1268 261 b 1275 269 1271 264 1274 265 l 1274 269 b 1268 261 1272 267 1269 264 m 1268 271 b 1267 269 1268 271 1268 269 b 1271 271 1268 269 1269 269 l 1271 271 l 1268 271 m 1263 260 b 1267 265 1265 261 1265 263 l 1267 265 l 1258 260 l 1263 260 m 1258 257 l 1254 257 b 1254 256 1254 256 1254 256 b 1258 256 1256 256 1257 256 m 1238 251 b 1250 256 1242 251 1247 253 l 1249 256 b 1238 251 1244 254 1242 253 m 1249 250 l 1246 250 b 1243 247 1244 249 1244 247 m 1219 240 b 1239 247 1226 242 1233 244 l 1236 247 b 1219 240 1231 244 1225 244 m 1200 236 b 1214 243 1203 238 1215 243 b 1200 236 1208 240 1203 240 m 1182 240 b 1201 246 1189 243 1194 244 l 1201 247 l 1199 247 b 1182 242 1193 244 1188 243 m 1182 232 l 1178 232 b 1160 225 1171 229 1165 226 b 1182 231 1168 226 1175 229 m 1140 217 b 1164 224 1149 219 1157 221 l 1161 224 b 1140 218 1154 222 1147 219 l 1140 217 m 1140 225 l 1136 225 b 1106 218 1126 222 1115 221 l 1106 217 b 1140 225 1119 218 1129 222 m 1125 214 b 1140 218 1129 215 1135 217 b 1136 219 1139 219 1138 219 l 1125 214 l 1125 214 m 1114 207 b 1129 210 1119 208 1124 210 l 1126 210 b 1114 207 1122 210 1118 208 m 1110 211 b 1121 214 1114 213 1118 214 l 1119 214 b 1110 213 1117 214 1114 213 l 1110 211 m 1099 203 b 1114 207 1103 204 1108 206 l 1111 207 b 1099 203 1107 206 1103 204 l 1099 203 m 1094 203 b 1086 204 1092 203 1089 204 b 1051 199 1075 201 1063 200 l 1051 197 b 1063 199 1054 197 1058 199 b 1060 197 1061 199 1061 197 m 1072 196 l 1068 196 b 1040 188 1058 192 1046 194 b 1072 194 1050 190 1061 193 m 1053 549 b 1074 583 1063 549 1071 563 b 1071 579 1074 582 1072 581 b 1054 572 1067 575 1060 572 l 988 572 l 988 549 m 988 707 l 1054 707 b 1071 700 1060 707 1067 704 b 1074 696 1072 699 1074 697 b 1053 731 1071 717 1063 731 l 988 731 m 1074 210 b 1064 207 1071 208 1067 207 l 1064 206 b 1076 210 1068 207 1072 208 m 1089 717 b 1064 731 1082 724 1072 728 b 1078 682 1072 722 1078 704 l 1079 650 l 1029 650 l 1029 626 l 1079 626 l 1078 597 b 1064 550 1078 575 1072 557 b 1089 563 1072 551 1082 556 b 1107 597 1099 572 1107 585 l 1107 682 b 1089 717 1107 694 1099 707 m 1106 215 b 1083 210 1099 214 1092 211 l 1083 208 b 1110 214 1093 211 1101 213 b 1106 215 1108 215 1107 215 m 1144 226 b 1143 225 1143 226 1143 225 l 1143 225 b 1146 226 1143 225 1144 225 m 1156 232 b 1151 231 1154 232 1153 232 l 1151 231 b 1157 232 1154 231 1156 232 m 1167 238 b 1176 240 1171 238 1174 239 l 1175 240 b 1167 239 1172 240 1169 239 l 1167 238 m 1178 236 b 1161 231 1172 235 1165 235 b 1181 236 1168 233 1176 233 l 1178 236 m 1207 247 b 1206 246 1207 246 1206 246 l 1206 244 b 1208 247 1207 246 1207 246 m 1224 251 b 1219 249 1222 251 1221 250 b 1226 251 1222 250 1224 251 m 1249 264 b 1231 256 1243 258 1238 263 b 1249 264 1238 257 1247 260 m 1257 269 b 1258 271 1258 271 1258 271 b 1257 271 1257 271 1257 271 l 1257 269 m 1265 271 b 1254 263 1261 268 1258 265 b 1265 271 1257 263 1267 268 m 1272 278 b 1271 275 1272 278 1272 276 b 1272 278 1274 276 1272 275 m 1263 332 b 1267 328 1264 329 1264 329 b 1263 332 1265 329 1264 331 m 1218 363 b 1228 358 1221 361 1225 360 b 1218 363 1226 361 1224 363 m 1189 371 b 1176 374 1186 372 1182 374 b 1189 371 1181 372 1185 372 m 1172 382 b 1182 379 1175 381 1178 381 b 1172 382 1179 382 1176 382 m 1131 269 b 1082 217 1124 253 1086 231 l 1083 217 b 1203 250 1110 225 1160 236 l 1203 250 b 1236 263 1217 251 1229 256 l 1235 263 b 1233 263 1235 263 1235 263 b 1275 288 1254 269 1269 279 b 1258 328 1276 308 1265 315 l 1267 319 b 1257 332 1264 326 1261 329 b 1258 328 1257 331 1257 329 b 1203 365 1239 343 1224 358 b 1158 375 1188 368 1174 371 b 1136 340 1151 364 1140 354 b 1131 269 1131 317 1140 289 m 972 572 b 956 579 967 572 960 575 b 953 583 954 581 953 582 b 972 549 956 564 963 550 m 938 563 b 964 549 946 556 954 551 b 949 596 954 557 949 575 b 949 596 949 596 949 596 l 949 731 l 924 731 l 924 597 b 938 563 924 585 929 572 m 901 628 b 894 644 901 633 900 640 b 878 651 890 650 883 651 l 832 651 b 839 635 832 646 833 639 b 856 628 843 629 850 628 m 810 682 b 796 717 810 694 804 707 b 769 731 788 724 779 728 b 785 682 779 722 785 704 l 785 597 b 769 550 785 575 779 557 b 796 563 779 551 788 556 b 810 597 804 572 810 585 m 760 549 b 781 583 769 549 778 563 b 778 579 781 582 779 581 b 761 572 774 575 767 572 l 675 572 b 658 579 669 572 663 575 b 656 583 657 581 657 582 b 676 549 658 563 667 549 l 760 549 m 642 563 b 667 550 649 556 657 551 b 651 597 657 557 651 575 l 651 682 b 667 731 651 704 657 722 b 642 717 657 728 649 724 b 626 682 632 707 626 694 l 626 597 b 642 563 626 585 632 572 m 656 208 b 665 207 658 206 663 206 b 656 208 663 207 660 207 m 617 221 b 636 218 622 218 631 217 b 635 219 635 219 635 219 b 617 221 629 219 622 221 m 633 213 b 632 214 632 213 632 213 b 613 217 625 214 618 215 b 633 211 619 214 626 213 m 576 226 b 596 225 579 225 590 222 b 576 226 589 226 582 226 m 567 222 b 594 214 574 218 585 215 b 576 221 589 217 582 219 l 576 222 l 567 222 m 575 231 b 549 236 568 235 558 235 b 575 231 556 232 565 232 m 525 242 b 542 235 528 238 535 236 b 525 242 536 238 531 239 m 504 242 b 526 232 510 236 518 233 b 504 242 519 235 511 239 m 507 249 b 489 260 503 254 496 257 b 507 249 493 256 500 251 m 476 275 b 493 261 481 268 485 264 b 476 275 488 265 482 269 m 467 288 b 475 274 467 282 471 276 b 467 288 472 278 469 282 m 456 300 b 474 267 456 285 465 272 b 456 300 467 278 463 286 m 468 326 b 460 292 463 319 453 306 b 468 326 458 308 468 318 m 468 314 b 476 326 469 317 478 325 b 467 313 472 322 468 319 b 468 314 467 314 468 314 m 471 289 b 467 308 468 294 468 303 b 471 289 465 300 467 293 m 521 244 b 511 251 517 247 514 249 b 521 244 514 247 515 246 m 496 332 b 488 272 461 318 465 294 b 489 268 485 271 486 272 b 521 249 500 263 510 256 b 657 222 547 235 618 222 l 657 224 b 571 304 639 261 614 292 b 564 367 568 328 576 349 b 499 336 542 357 521 346 b 501 339 500 338 500 338 b 478 322 492 338 483 329 b 499 336 485 326 492 332 b 496 332 497 335 497 333 m 478 339 b 485 343 479 340 482 342 l 482 343 b 478 339 481 342 479 340 m 490 336 b 486 333 489 336 488 335 b 490 336 488 333 492 336 m 507 346 b 500 342 504 344 503 343 b 508 346 504 343 507 343 m 507 353 b 500 347 504 350 503 349 b 510 353 503 349 507 350 l 507 353 m 525 351 b 511 344 519 349 514 349 l 526 351 l 525 351 m 522 361 b 511 354 518 358 514 358 b 525 361 517 356 521 358 l 522 361 m 526 361 b 531 364 529 361 533 363 b 526 361 529 363 528 363 m 529 365 b 533 367 531 365 532 365 l 531 367 b 529 365 531 367 531 365 m 536 360 b 521 353 531 357 525 358 b 539 360 526 356 533 357 m 557 371 b 539 363 551 368 546 365 b 560 371 547 364 556 367 l 557 371 m 557 375 b 542 368 553 372 546 372 b 560 375 549 371 554 374 l 557 375 m 554 379 b 547 375 551 378 550 376 b 557 379 550 376 554 378 l 554 379 m 676 731 b 656 696 667 731 658 717 b 658 700 657 697 657 699 b 675 707 663 704 669 707 l 761 707 b 778 700 767 707 774 704 b 781 696 779 699 781 697 b 760 731 778 717 769 731 l 676 731 m 510 550 l 504 557 b 508 576 506 564 507 569 b 503 635 511 599 506 618 l 494 635 b 419 617 469 626 443 626 l 419 607 b 413 603 417 606 415 604 b 389 603 406 600 394 604 b 346 572 379 600 353 579 b 350 563 347 568 349 565 b 385 544 367 561 374 550 b 493 514 415 531 451 515 m 469 515 b 492 510 478 514 485 511 l 492 513 b 469 515 485 514 478 514 m 476 503 b 493 499 482 501 488 500 b 476 503 489 501 482 503 m 478 490 b 485 490 479 490 482 489 b 478 490 482 490 481 490 m 425 507 b 464 497 431 501 456 494 b 425 507 450 500 438 503 m 425 521 b 458 514 431 517 449 511 b 425 521 447 517 439 521 m 418 525 b 425 524 419 524 422 522 b 418 525 422 525 421 525 m 428 510 b 399 519 421 515 408 518 b 428 510 406 514 417 511 m 411 525 b 393 532 407 529 400 531 b 413 525 397 529 407 524 l 411 525 m 392 542 b 414 532 397 536 406 533 b 392 542 407 535 399 538 m 365 550 b 392 538 371 543 381 539 b 365 550 386 543 376 547 m 358 542 b 368 535 363 539 365 538 b 358 542 367 539 364 540 m 354 560 b 375 549 358 553 364 550 b 354 560 368 554 361 557 m 343 561 b 347 558 344 560 346 558 b 343 561 346 560 346 560 m 340 567 b 344 564 342 565 342 565 l 340 567 m 342 578 l 342 576 b 343 578 342 578 343 578 m 336 585 b 349 594 340 589 344 592 l 347 594 b 336 585 343 592 339 590 m 333 558 b 339 554 336 556 336 556 b 333 558 338 557 338 557 m 332 567 b 335 561 332 564 332 563 b 332 567 333 563 332 565 m 335 582 b 332 574 333 579 332 576 l 332 574 l 335 582 m 329 575 b 335 588 331 579 338 586 b 328 575 332 583 329 581 m 347 586 b 353 590 349 586 354 590 l 347 586 m 354 585 b 347 581 353 583 350 582 b 346 576 347 579 346 578 l 346 576 b 356 585 351 579 354 581 m 368 597 b 356 589 363 594 358 593 b 369 597 360 592 365 594 l 368 597 m 378 606 b 364 597 372 603 368 601 b 381 606 371 599 376 601 l 378 606 m 367 611 b 372 615 368 613 371 614 l 367 613 m 431 629 b 435 631 432 629 433 629 l 433 631 b 431 629 432 631 432 629 l 431 629 m 436 626 b 431 624 435 625 432 624 b 439 626 433 624 436 625 l 436 626 m 453 646 b 413 633 439 640 422 640 b 454 646 426 636 444 638 l 453 646 m 453 646 b 469 650 458 646 465 647 l 467 650 b 453 647 463 649 457 649 m 479 639 b 476 640 478 640 476 640 b 457 633 469 638 463 638 b 479 639 464 636 472 638 m 485 650 l 456 642 b 486 650 465 644 476 647 m 496 642 b 481 639 492 640 486 640 l 481 638 b 501 642 488 639 494 640 l 501 642 l 496 642 m 483 849 b 499 849 489 849 493 849 l 499 850 l 490 850 b 483 849 489 849 486 849 m 464 810 b 485 839 467 815 488 836 b 458 835 476 838 467 836 b 401 824 439 832 419 828 l 401 824 b 464 810 422 821 442 811 m 446 811 b 463 808 450 810 457 807 b 446 811 457 810 451 810 m 432 800 b 456 796 436 797 450 793 b 432 800 447 797 439 799 m 451 801 b 428 807 444 804 436 806 b 451 801 433 804 446 800 m 424 814 b 438 810 426 811 433 808 b 424 814 433 811 428 813 m 397 819 b 413 815 400 817 408 814 b 397 819 407 817 401 818 m 390 817 b 401 813 393 815 397 814 l 388 819 b 390 817 389 817 388 818 m 386 825 b 386 826 388 826 388 825 l 386 825 m 386 819 b 386 821 386 819 386 821 b 383 824 385 822 386 822 b 385 819 383 821 383 821 l 386 819 m 381 826 b 382 828 381 826 382 828 b 381 832 382 829 382 831 b 379 825 381 829 379 829 l 381 825 l 381 826 m 389 824 b 389 825 390 825 390 824 m 393 831 b 410 832 399 831 404 832 b 403 833 407 833 406 833 b 393 831 400 832 397 832 m 415 843 b 401 839 411 842 406 840 b 418 843 407 840 413 842 l 415 843 m 410 829 b 399 825 406 828 401 828 b 413 828 403 826 408 828 l 413 829 m 421 838 l 413 838 b 410 836 411 838 410 838 l 410 836 b 421 836 413 836 417 836 m 421 835 b 417 832 419 833 418 833 b 429 835 421 833 425 833 m 456 840 b 438 836 450 839 443 838 b 458 840 444 836 453 836 l 456 840 m 471 840 b 458 839 467 840 463 839 l 458 838 b 476 840 465 839 471 840 m 451 843 b 475 846 460 843 467 844 l 463 846 b 451 843 458 844 454 844 m 457 850 b 460 850 458 850 460 850 l 460 850 m 461 851 b 464 850 463 851 464 851 l 464 851 m 1432 590 b 1428 575 1433 586 1428 578 b 1428 568 1428 572 1428 569 l 1421 561 b 1415 542 1419 554 1417 549 b 1383 524 1410 533 1392 528 b 1364 511 1378 521 1371 510 b 1376 519 1369 513 1374 517 b 1332 496 1360 515 1353 503 b 1269 481 1310 489 1292 486 b 1239 479 1260 481 1249 479 b 1193 432 1232 451 1213 446 b 1165 389 1185 425 1171 400 b 1281 324 1219 383 1257 361 b 1292 282 1288 313 1297 300 b 1279 267 1289 276 1285 272 b 1281 274 1281 269 1283 272 b 1276 265 1279 271 1278 268 b 1279 267 1278 265 1278 267 b 1153 215 1249 240 1185 224 b 1156 214 1153 215 1154 214 b 1110 201 1140 210 1125 204 b 1039 186 1086 196 1063 192 b 1022 164 1033 179 1028 171 b 982 115 1008 147 994 132 b 936 64 968 99 956 74 b 828 65 904 46 860 57 b 746 79 801 72 768 69 b 669 199 724 89 678 172 b 564 215 639 199 600 206 b 578 215 569 214 574 214 b 526 229 561 219 544 225 b 538 224 529 228 533 225 b 467 265 506 235 479 249 b 518 363 425 319 483 344 b 557 382 526 367 542 379 b 499 457 551 419 513 431 b 494 479 496 464 500 475 l 436 494 b 332 543 400 506 361 524 b 319 563 325 549 321 554 b 340 542 322 553 332 544 b 361 614 299 581 335 589 b 379 621 369 617 378 621 b 383 633 381 625 382 631 b 464 651 411 632 436 646 b 497 660 474 654 493 653 b 465 726 488 685 475 704 b 460 753 464 736 461 744 b 451 765 457 757 454 761 l 456 792 b 381 814 426 796 396 808 b 376 826 379 819 376 821 b 500 854 386 846 471 853 b 579 928 500 875 564 908 b 594 954 585 936 589 944 b 617 971 601 960 608 965 b 640 996 624 979 632 988 b 675 1007 651 1000 663 1003 b 719 1036 690 1017 706 1026 b 753 1042 731 1038 742 1040 b 801 1057 769 1046 785 1051 b 826 1068 810 1061 818 1064 b 843 1082 832 1072 838 1078 b 968 1081 875 1093 936 1088 b 1028 1076 989 1079 1008 1078 b 1142 986 1078 1063 1114 1024 b 1222 861 1160 961 1233 896 b 1329 840 1260 860 1300 849 b 1371 831 1342 838 1363 839 b 1368 826 1369 829 1369 828 b 1375 824 1372 826 1374 825 b 1369 822 1374 822 1372 822 b 1371 819 1369 821 1369 821 b 1375 818 1372 819 1374 819 l 1375 817 b 1371 815 1374 815 1372 815 b 1372 810 1372 813 1372 813 b 1342 800 1363 807 1353 804 b 1268 793 1318 794 1294 797 b 1251 792 1263 792 1257 792 b 1256 792 1253 792 1254 792 l 1214 788 l 1214 786 b 1219 785 1217 785 1218 785 l 1215 785 l 1215 740 b 1246 681 1225 721 1236 700 l 1243 669 b 1250 644 1244 661 1247 653 b 1322 635 1271 642 1301 635 b 1328 656 1318 644 1321 651 b 1340 651 1333 658 1336 654 b 1338 631 1340 642 1338 636 b 1393 617 1354 628 1375 622 l 1393 617 b 1390 617 1392 617 1392 617 b 1376 619 1386 618 1382 618 l 1376 619 b 1390 617 1381 618 1385 617 b 1393 617 1392 617 1392 617 l 1393 617 b 1411 611 1400 615 1407 615 l 1415 603 b 1428 593 1415 603 1439 597 b 1432 590 1429 592 1431 592 m 1276 413 b 1279 417 1278 414 1278 415 b 1283 414 1282 415 1281 417 b 1281 410 1282 413 1282 411 l 1278 410 b 1276 413 1278 411 1278 411 m 143 63 b 149 60 147 61 147 61 b 147 58 147 60 147 60 b 140 56 144 56 144 57 l 140 60 m 1419 61 b 1421 58 1419 60 1421 60 b 1418 58 1419 58 1419 58 l 1414 58 l 1414 60 b 1413 63 1414 61 1414 61 l 1419 63 m 338 601 b 322 585 332 596 326 590 b 319 579 321 583 319 581 b 338 601 321 589 328 597 m 1268 414 b 1269 418 1268 415 1269 417 l 1272 415 b 1271 414 1272 414 1272 414 l 1268 414 m 339 604 b 358 613 340 604 349 608 b 338 601 351 608 344 606 b 339 604 338 603 339 603 m 361 614 b 361 614 361 614 361 614 b 358 613 360 613 358 613 b 361 614 358 613 360 614 m 486 585 b 490 593 488 589 488 590 b 503 586 497 592 499 589 b 501 581 501 583 501 582 b 499 576 500 579 500 578 b 486 585 492 576 489 579 m 1336 671 b 1339 674 1338 672 1338 674 l 1346 674 l 1349 669 b 1346 668 1347 669 1347 669 b 1336 669 1342 668 1340 668 l 1336 671 m 1453 1014 b 1458 1003 1456 1011 1458 1008 b 1451 993 1456 1000 1454 997 b 1447 992 1450 992 1449 992 b 1438 1007 1446 997 1438 1000 b 1450 1014 1440 1011 1446 1011 l 1453 1014 m 1464 63 b 1488 46 1478 60 1482 56 b 1483 36 1486 43 1485 40 b 1464 36 1478 35 1471 33 b 1454 51 1457 39 1456 44 b 1464 63 1458 57 1458 58 m 1465 243 b 1454 247 1460 240 1457 242 b 1456 249 1454 247 1456 247 b 1460 251 1457 249 1458 250 b 1465 247 1464 250 1464 250 l 1465 243 m 1254 442 b 1256 442 1254 442 1256 442 b 1261 439 1260 442 1260 442 b 1261 438 1261 439 1261 438 b 1254 438 1258 438 1257 438 b 1254 442 1254 439 1254 440 m 1228 446 b 1226 453 1225 449 1225 449 b 1231 450 1228 451 1229 451 b 1229 446 1229 449 1229 447 l 1228 446 m 478 422 b 481 424 478 422 479 422 l 485 424 l 485 419 b 478 418 482 418 481 418 l 478 422 m 485 431 b 483 433 483 432 483 432 l 483 438 l 485 442 l 488 442 b 490 440 489 440 489 440 b 489 433 490 438 489 436 b 486 431 489 433 488 432 m 500 436 b 499 438 499 438 500 436 l 503 438 b 501 436 501 436 501 436 m 1622 881 b 1581 869 1613 868 1599 865 b 1579 904 1574 881 1571 894 b 1599 907 1586 906 1592 906 b 1622 881 1614 906 1621 894 m 1467 258 b 1467 257 1467 258 1467 258 b 1461 260 1464 258 1463 258 b 1463 261 1461 260 1461 261 b 1464 263 1463 263 1463 263 b 1467 261 1465 263 1465 261 l 1467 258 m 1428 981 b 1419 979 1425 981 1422 981 b 1415 983 1418 981 1417 982 b 1417 990 1415 988 1415 988 b 1422 993 1418 990 1421 992 l 1431 989 b 1428 981 1429 986 1428 983 m 1454 279 b 1456 283 1454 281 1454 282 b 1460 281 1458 282 1458 282 b 1460 275 1460 279 1460 278 b 1456 274 1458 275 1457 275 b 1454 276 1456 275 1456 275 b 1454 279 1454 278 1454 279 m 1467 774 b 1463 775 1463 772 1464 772 l 1467 774 l 1467 774 m 1478 225 b 1468 235 1474 228 1471 232 b 1476 242 1469 238 1474 239 b 1485 236 1482 242 1482 239 b 1486 233 1486 236 1486 235 b 1481 225 1485 231 1483 228 m 1486 222 b 1483 225 1482 224 1485 224 b 1486 224 1485 225 1485 224 l 1486 222 m 1496 236 b 1499 235 1497 236 1497 236 b 1496 233 1497 235 1497 235 m 149 33 l 149 32 l 149 22 b 144 19 147 21 146 21 b 140 24 143 21 142 22 b 143 32 142 26 143 29 b 144 33 144 32 144 33 m 1496 743 b 1474 747 1490 739 1476 742 b 1469 756 1471 749 1471 751 b 1482 764 1474 758 1478 761 b 1504 753 1496 764 1500 763 b 1496 743 1501 749 1501 744 m 1483 264 b 1481 260 1482 260 1483 261 l 1479 261 b 1481 264 1479 261 1481 263 m 1403 978 b 1399 975 1401 976 1400 975 b 1397 976 1399 975 1397 975 b 1399 983 1397 981 1397 981 b 1403 981 1400 982 1401 982 l 1403 978 m 1401 713 l 1406 710 b 1401 707 1404 707 1406 708 m 490 908 l 490 910 l 493 910 b 492 907 492 908 492 907 l 490 907 b 490 907 490 907 490 907 m 489 910 b 488 911 489 910 488 911 b 490 910 490 910 489 913 m 458 928 l 460 928 b 463 926 461 926 463 926 b 463 921 463 924 463 922 l 461 921 b 456 924 458 922 458 922 m 1240 897 b 1239 896 1240 897 1239 897 b 1232 897 1235 896 1235 897 l 1232 899 b 1233 901 1233 900 1233 901 b 1240 901 1236 901 1238 901 l 1240 897 m 1307 928 b 1278 929 1299 925 1283 918 b 1281 936 1276 933 1278 933 l 1288 938 b 1310 931 1296 938 1304 936 b 1307 928 1308 931 1308 929 m 1386 968 b 1385 972 1386 969 1385 971 b 1388 968 1388 971 1386 972 m 1342 950 b 1342 953 1342 951 1342 953 b 1342 954 1342 954 1342 954 l 1346 954 b 1347 953 1347 954 1347 953 b 1346 950 1347 951 1347 951 m 1333 944 b 1324 947 1331 944 1328 946 l 1324 949 l 1329 954 b 1336 953 1332 954 1333 953 l 1338 950 l 1335 944 m 1326 940 b 1324 938 1325 938 1326 939 b 1324 940 1324 939 1324 939 l 1326 940 m 1586 124 b 1578 122 1583 122 1581 122 b 1583 142 1574 132 1578 136 b 1589 142 1585 142 1588 142 b 1592 138 1590 140 1590 139 b 1586 124 1592 129 1589 128 m 460 933 b 444 926 454 929 451 926 l 444 931 b 454 938 447 935 451 935 b 460 936 456 938 457 936 l 460 933 m 1599 128 l 1600 129 b 1603 128 1600 129 1601 128 l 1603 126 l 1599 126 m 1572 110 b 1575 113 1574 111 1574 113 b 1578 110 1578 111 1576 113 b 1576 108 1578 110 1578 110 b 1572 110 1574 108 1575 108 m 1571 1040 b 1568 1036 1569 1039 1568 1038 b 1560 1039 1563 1036 1563 1036 l 1560 1040 b 1560 1046 1560 1042 1560 1043 b 1569 1043 1563 1044 1567 1043 b 1571 1040 1569 1042 1571 1040 m 1658 1047 l 1661 1050 l 1665 1050 b 1664 1046 1664 1049 1664 1047 b 1663 1043 1664 1046 1663 1044 l 1660 1043 b 1658 1044 1658 1044 1658 1044 m 1579 832 b 1561 835 1575 825 1560 829 b 1557 847 1558 839 1557 840 b 1565 854 1560 851 1563 853 b 1574 853 1568 854 1571 854 b 1581 843 1576 850 1578 846 b 1579 832 1581 839 1579 835 m 1479 1006 b 1474 1025 1474 1010 1474 1015 b 1481 1032 1475 1028 1478 1029 l 1486 1032 b 1496 1021 1490 1029 1493 1025 b 1497 1011 1499 1018 1499 1015 b 1496 1008 1497 1010 1496 1010 b 1479 1006 1492 1007 1483 1004 m 1582 1040 b 1578 1043 1581 1042 1581 1043 b 1582 1051 1579 1049 1579 1049 l 1583 1051 b 1593 1049 1589 1051 1590 1051 l 1593 1046 b 1582 1040 1589 1042 1588 1040 m 1582 1036 b 1583 1039 1582 1036 1583 1038 b 1585 1038 1583 1039 1585 1038 b 1583 1036 1585 1036 1583 1036 l 1582 1036 m 1633 1044 b 1635 1047 1633 1046 1635 1046 b 1642 1044 1638 1046 1639 1046 l 1642 1040 b 1640 1036 1642 1039 1642 1038 l 1639 1036 b 1633 1044 1635 1038 1635 1040 m 1660 1063 b 1640 1051 1653 1058 1647 1054 l 1628 1058 b 1629 1060 1628 1058 1628 1060 b 1638 1069 1632 1064 1633 1067 b 1643 1069 1639 1069 1642 1069 b 1656 1069 1647 1069 1651 1069 b 1660 1063 1657 1067 1658 1064 m 1526 192 b 1528 189 1528 190 1526 192 l 1526 189 m 1499 239 b 1499 247 1499 242 1499 244 b 1508 251 1503 249 1506 250 b 1519 250 1513 251 1517 250 b 1526 238 1522 246 1525 244 b 1521 232 1525 235 1524 233 b 1507 229 1517 231 1511 231 b 1499 239 1504 233 1501 236 m 1539 817 b 1539 824 1539 819 1539 821 l 1554 832 b 1574 819 1563 831 1569 828 l 1574 814 b 1556 801 1569 807 1563 807 b 1539 817 1547 806 1543 808 m 1531 199 b 1526 196 1529 197 1528 196 l 1524 196 l 1521 199 b 1522 201 1522 199 1522 200 b 1524 204 1522 203 1524 203 l 1529 204 b 1531 201 1529 203 1529 203 m 1525 788 b 1518 778 1521 785 1519 782 b 1478 794 1499 776 1485 781 b 1490 810 1479 803 1485 806 b 1521 800 1500 810 1513 804 b 1525 788 1522 796 1524 792 m 1510 1017 b 1508 1011 1510 1014 1510 1014 b 1503 1014 1506 1011 1504 1013 l 1503 1014 b 1504 1018 1503 1015 1503 1017 l 1508 1018 b 1510 1017 1510 1018 1510 1017 m 1561 181 b 1557 178 1560 178 1561 178 b 1556 178 1557 178 1557 178 l 1556 179 b 1557 182 1556 181 1557 181 l 1560 182 m 1522 1008 b 1517 1010 1521 1008 1518 1010 b 1531 1043 1507 1024 1521 1036 b 1538 1040 1533 1043 1535 1042 b 1539 1031 1539 1038 1539 1033 b 1531 1024 1536 1028 1533 1025 b 1528 1011 1535 1017 1532 1017 b 1522 1008 1526 1010 1524 1010 m 1560 151 b 1560 156 1560 153 1560 154 l 1561 156 b 1564 153 1563 154 1563 154 b 1561 151 1563 153 1563 153 m 1544 799 b 1539 797 1543 799 1542 799 l 1539 800 b 1539 800 1539 800 1539 800 b 1540 804 1539 801 1540 803 l 1546 804 b 1547 803 1546 804 1546 803 b 1544 799 1546 799 1547 800 m 1550 1026 b 1544 1022 1547 1024 1549 1024 b 1543 1024 1544 1022 1544 1024 b 1546 1028 1544 1025 1546 1026 l 1550 1026 m 1488 257 b 1486 254 1488 256 1488 256 b 1482 256 1483 254 1485 254 b 1485 260 1483 257 1483 258 b 1488 257 1485 258 1486 257 m 203 1022 b 190 1028 199 1024 194 1026 b 192 1042 190 1035 189 1036 b 197 1043 193 1043 194 1043 b 214 1036 207 1043 210 1040 b 214 1029 214 1032 215 1032 b 203 1022 211 1025 210 1022 m 213 840 b 214 838 213 840 214 839 b 210 831 213 835 211 833 b 217 828 213 831 215 829 b 218 818 218 825 219 821 l 215 815 b 206 814 213 815 208 815 b 200 818 204 815 201 817 b 200 839 199 825 199 832 b 203 843 200 840 201 842 b 213 840 206 842 208 842 m 228 824 b 228 822 228 824 228 822 b 222 819 226 821 224 821 l 219 824 b 222 828 219 825 221 826 b 228 824 226 828 226 828 m 186 161 b 183 165 185 163 185 164 b 188 174 185 168 186 171 b 196 165 193 172 194 169 b 190 157 194 161 193 160 b 186 161 188 158 188 160 m 224 1021 b 214 1026 218 1021 217 1024 b 215 1029 215 1028 215 1028 b 221 1032 217 1031 219 1031 b 225 1029 222 1031 224 1031 l 232 1032 l 232 1029 b 232 1028 232 1028 232 1028 b 224 1021 226 1026 226 1024 m 151 126 b 151 131 150 129 150 128 b 156 129 153 131 154 131 l 156 129 b 151 126 154 128 154 128 m 140 900 b 156 893 147 899 153 896 b 156 882 156 889 156 886 b 151 875 154 879 153 876 b 139 874 147 874 143 874 b 125 886 132 875 128 881 b 140 900 129 894 133 894 m 185 840 b 183 839 185 840 183 839 l 179 839 b 181 842 181 839 181 840 b 185 840 182 842 183 842 m 174 1039 b 147 1036 164 1035 156 1029 b 144 1046 146 1039 144 1042 b 146 1050 144 1047 146 1049 l 149 1051 b 172 1044 158 1053 169 1050 b 174 1040 174 1043 174 1043 l 174 1039 m 188 156 b 193 150 192 154 193 154 b 192 147 193 149 193 149 b 186 153 188 149 188 149 b 188 156 188 154 188 156 m 250 232 b 249 233 249 232 249 233 l 249 235 b 250 233 249 235 250 235 m 140 131 b 136 131 139 131 138 131 l 136 132 b 135 135 136 133 135 135 l 138 138 l 140 138 b 143 135 142 138 142 136 l 143 133 b 140 131 142 132 140 132 m 297 717 b 296 718 297 718 296 718 b 299 725 296 724 296 722 b 303 724 300 724 301 724 b 303 718 303 722 303 719 b 301 717 303 718 301 717 m 296 260 b 293 261 294 260 294 261 b 293 264 293 263 293 263 b 297 260 297 264 296 264 l 296 260 m 228 768 b 228 783 219 772 222 778 b 239 776 233 782 236 781 l 239 774 b 228 768 235 771 233 768 m 243 800 b 239 799 242 800 240 799 b 236 800 239 799 238 800 l 236 801 b 240 804 238 803 238 803 b 243 800 243 803 242 804 m 347 724 b 353 722 349 724 350 724 b 351 718 351 721 351 719 b 346 719 350 719 347 719 l 346 721 m 353 964 b 349 963 351 964 350 963 b 343 968 346 965 344 967 b 346 975 344 972 344 972 l 351 975 b 354 971 353 974 354 972 b 353 964 354 965 354 965 m 364 981 b 361 975 363 978 363 978 b 353 979 356 975 356 976 l 353 981 b 358 985 354 982 356 983 b 364 981 360 983 361 982 m 358 967 b 360 968 358 967 360 967 b 364 967 361 968 363 967 l 364 967 b 363 963 364 965 363 964 l 358 967 m 318 981 b 311 982 317 982 314 982 b 306 988 310 983 307 986 l 306 989 l 311 994 b 324 990 318 994 318 992 b 325 989 325 990 325 990 b 318 981 322 986 321 983 m 322 982 b 321 983 322 982 321 982 b 322 985 321 983 321 983 l 324 985 b 322 982 324 983 324 983 m 104 71 b 90 71 99 69 94 68 b 99 82 90 79 92 79 b 104 81 100 82 103 81 b 104 71 104 76 104 74 m 133 11 b 142 15 136 13 139 14 b 143 7 142 13 143 10 b 140 1 142 6 142 3 b 135 0 139 1 136 0 b 131 7 132 3 132 3 b 113 36 122 -1 86 17 b 133 11 125 35 135 25 m 76 68 b 99 46 94 69 103 61 l 96 44 b 88 43 92 46 90 44 b 72 56 85 47 76 53 b 72 64 72 58 72 61 l 76 68 m 81 949 l 79 951 b 81 956 79 953 81 954 b 88 954 83 956 85 956 b 88 953 88 954 88 953 l 88 949 m 78 957 b 71 953 76 953 76 953 b 72 957 71 954 71 956 l 72 957 b 78 957 74 957 76 957 m 57 983 b 42 990 50 983 44 986 b 46 1003 43 994 44 999 b 54 1007 49 1004 51 1006 b 64 1001 57 1006 60 1004 b 61 986 64 994 64 993 b 57 983 60 986 58 985 m 128 32 b 126 36 126 33 126 33 b 125 39 126 36 125 38 l 126 42 b 133 40 129 42 131 40 l 133 38 b 128 32 131 35 131 33 m 74 994 b 78 989 75 993 76 990 b 74 985 76 986 76 986 l 72 986 b 68 990 69 988 69 989 b 71 994 69 992 69 993 m 410 951 l 406 951 l 406 954 l 410 954 m 68 1031 b 69 1032 68 1031 69 1032 b 75 1029 74 1032 74 1032 b 76 1025 75 1028 75 1026 b 74 1025 75 1025 74 1025 l 68 1025 l 68 1031 m 356 674 b 361 682 358 676 360 679 b 376 675 369 681 372 678 l 376 672 l 369 661 b 358 668 364 663 360 664 b 356 674 357 669 357 671 m 72 964 b 67 954 71 960 69 957 b 46 958 58 951 49 950 b 43 975 43 963 43 969 l 47 976 b 69 968 54 974 63 972 m 125 900 b 118 906 121 899 118 901 b 119 907 118 906 119 907 b 128 906 122 907 125 906 b 129 903 128 906 128 904 b 125 900 128 900 128 901 m 122 922 b 121 929 122 925 121 926 b 131 936 125 931 128 933 b 143 926 135 935 143 931 b 143 924 143 925 143 925 b 140 919 143 922 142 921 b 122 922 133 917 128 918 m 63 1035 b 51 1043 58 1038 56 1040 l 51 1046 l 53 1047 b 60 1050 56 1049 57 1049 b 72 1047 64 1049 68 1047 b 72 1044 72 1046 72 1046 b 65 1035 71 1042 68 1038 m 121 1044 b 100 1047 114 1040 107 1043 b 101 1050 101 1049 101 1050 l 114 1057 b 122 1054 117 1056 119 1054 b 121 1044 124 1049 124 1047 m 101 928 l 100 931 b 103 932 101 931 103 931 b 106 931 104 931 104 931 b 104 928 106 929 104 929 m 96 946 b 96 950 96 947 96 949 l 100 949 l 100 946 b 99 944 99 946 99 944 l 96 944 b 96 946 96 944 96 946 m 92 897 b 92 901 90 899 90 899 l 94 900 l 94 897 l 92 897 m 131 110 b 117 75 131 94 143 76 b 108 79 114 76 111 78 l 108 93 b 119 100 113 96 114 99 b 121 113 118 106 118 108 b 128 113 124 113 125 113 b 131 110 129 111 131 111 m 99 975 b 93 978 94 976 94 975 l 93 983 b 100 978 97 982 97 981 b 99 975 99 976 99 976 m 94 907 l 90 910 l 90 910 b 93 914 92 911 92 913 l 96 911 b 94 907 96 910 94 908 "},"@":{"ha":1389,"x_min":0,"x_max":0,"o":""},"A":{"ha":2064,"x_min":0,"x_max":0,"o":"m 1565 256 l 1097 996 b 1071 1021 1090 1007 1082 1015 b 1036 1029 1060 1026 1049 1029 l 922 1029 b 888 1021 910 1029 899 1026 b 861 996 876 1015 868 1007 l 392 256 m 1825 0 l 1728 0 l 1618 175 l 340 175 l 229 0 l 133 0 l 793 1039 b 849 1092 807 1061 825 1079 b 922 1111 871 1104 897 1111 l 1036 1111 b 1110 1092 1061 1111 1088 1104 b 1165 1039 1132 1079 1151 1061 "},"B":{"ha":1931,"x_min":0,"x_max":0,"o":"m 1368 0 l 154 0 b 44 44 113 0 74 17 b 0 154 17 74 0 113 l 0 957 b 44 1067 0 999 17 1038 b 154 1111 74 1094 113 1111 l 1471 1111 b 1579 1067 1513 1111 1551 1094 b 1625 957 1608 1038 1625 999 l 1625 424 b 1613 365 1625 404 1621 383 b 1579 315 1606 346 1594 329 l 1511 246 b 1561 200 1533 239 1551 222 b 1543 111 1574 168 1567 133 l 1478 46 b 1428 11 1464 31 1447 19 b 1368 0 1410 4 1389 0 m 82 168 l 82 154 b 103 103 82 135 89 117 b 154 82 117 89 135 82 l 1368 82 b 1397 88 1378 82 1388 83 b 1421 103 1406 90 1414 96 l 1472 154 b 1474 163 1474 157 1475 160 b 1467 168 1472 167 1469 168 l 82 168 m 82 250 l 1369 250 b 1397 256 1379 250 1388 251 b 1421 271 1406 258 1414 264 l 1522 372 b 1538 396 1529 379 1535 388 b 1543 424 1542 406 1543 414 l 1543 957 b 1522 1008 1543 976 1536 994 b 1471 1029 1508 1022 1490 1029 l 154 1029 b 103 1008 135 1029 117 1022 b 82 957 89 994 82 976 l 82 250 "},"C":{"ha":1768,"x_min":0,"x_max":0,"o":"m 1369 0 l 154 0 b 44 44 113 0 74 17 b 0 154 17 74 0 113 l 0 957 b 44 1067 0 999 17 1038 b 154 1111 74 1094 113 1111 l 1486 1111 b 1561 1061 1519 1111 1549 1092 b 1543 972 1574 1031 1567 996 l 1444 874 l 1388 931 l 1472 1015 b 1474 1025 1474 1018 1475 1021 b 1467 1029 1472 1028 1469 1029 l 154 1029 b 103 1008 135 1029 117 1022 b 82 957 89 994 82 976 l 82 154 b 103 103 82 135 89 117 b 154 82 117 89 135 82 l 1369 82 b 1397 88 1379 82 1388 83 b 1421 103 1406 90 1414 96 l 1522 204 b 1538 228 1529 211 1535 219 b 1543 256 1542 238 1543 246 l 1625 256 b 1613 197 1625 236 1621 215 b 1579 147 1606 178 1594 161 l 1478 44 b 1428 11 1464 31 1447 19 b 1369 0 1410 4 1389 0 "},"D":{"ha":1929,"x_min":0,"x_max":0,"o":"m 1369 0 l 154 0 b 44 44 113 0 74 17 b 0 154 17 74 0 113 l 0 957 b 44 1067 0 999 17 1038 b 154 1111 74 1094 113 1111 l 1369 1111 b 1428 1100 1389 1111 1410 1107 b 1478 1067 1447 1092 1464 1081 l 1579 964 b 1613 914 1594 950 1606 933 b 1625 856 1621 896 1625 875 l 1625 256 b 1613 197 1625 236 1621 215 b 1579 147 1606 178 1594 161 l 1478 44 b 1428 11 1464 31 1447 19 b 1369 0 1410 4 1389 0 m 154 1029 b 103 1008 135 1029 117 1022 b 82 957 89 994 82 976 l 82 154 b 103 103 82 135 89 117 b 154 82 117 89 135 82 l 1369 82 b 1397 88 1379 82 1388 83 b 1421 103 1406 90 1414 96 l 1522 204 b 1538 228 1529 211 1535 219 b 1543 256 1542 238 1543 246 l 1543 856 b 1538 883 1543 865 1542 874 b 1522 907 1535 892 1529 900 l 1421 1008 b 1397 1024 1414 1015 1406 1021 b 1369 1029 1388 1028 1379 1029 l 154 1029 "},"E":{"ha":1896,"x_min":0,"x_max":0,"o":"m 813 0 l 156 0 b 46 46 114 0 75 17 b 0 156 17 75 0 114 l 0 956 b 46 1065 0 997 17 1036 b 156 1111 75 1094 114 1111 l 1469 1111 b 1579 1065 1511 1111 1550 1094 b 1625 956 1608 1036 1625 997 l 1625 431 b 1613 371 1625 410 1621 390 b 1579 321 1606 353 1594 336 l 1478 219 b 1428 186 1464 206 1447 194 b 1368 175 1410 179 1389 175 l 82 175 l 82 156 b 103 103 82 135 89 117 b 156 82 117 89 135 82 l 813 82 l 813 0 m 82 256 l 1368 256 b 1397 261 1378 256 1388 258 b 1421 278 1406 265 1414 271 l 1522 379 b 1538 403 1529 386 1535 393 b 1543 431 1542 411 1543 421 l 1543 956 b 1522 1008 1543 976 1536 994 b 1469 1029 1508 1022 1490 1029 l 156 1029 b 103 1008 135 1029 117 1022 b 82 956 89 994 82 976 l 82 256 "},"F":{"ha":1678,"x_min":0,"x_max":0,"o":"m 1561 1061 b 1543 972 1574 1031 1567 996 l 1444 874 l 1388 931 l 1472 1015 b 1474 1025 1474 1018 1475 1021 b 1467 1029 1472 1028 1469 1029 l 154 1029 b 103 1008 135 1029 117 1022 b 82 957 89 994 82 976 l 82 256 l 597 256 b 625 261 607 256 617 258 b 649 278 633 265 642 271 l 750 379 b 767 403 757 386 763 394 b 772 431 769 411 772 421 l 853 431 b 842 371 853 410 849 390 b 808 321 833 353 822 336 l 707 219 b 657 186 692 206 675 194 b 597 175 638 179 618 175 l 82 175 l 82 0 l 0 0 l 0 957 b 44 1067 0 999 17 1038 b 154 1111 74 1094 113 1111 l 1486 1111 b 1561 1061 1519 1111 1549 1092 "},"G":{"ha":1713,"x_min":0,"x_max":0,"o":"m 1368 0 l 154 0 b 44 44 113 0 74 17 b 0 154 17 74 0 113 l 0 957 b 44 1067 0 999 17 1038 b 154 1111 74 1094 113 1111 l 1486 1111 b 1561 1061 1519 1111 1549 1092 b 1543 972 1574 1031 1567 996 l 1444 874 l 1388 931 l 1472 1015 b 1474 1025 1474 1018 1475 1021 b 1467 1029 1472 1028 1469 1029 l 154 1029 b 103 1008 135 1029 117 1022 b 82 957 89 994 82 976 l 82 154 b 103 103 82 135 89 117 b 154 82 117 89 135 82 l 1368 82 b 1397 88 1378 82 1388 83 b 1421 103 1406 90 1414 96 l 1486 168 l 813 168 l 813 250 l 1486 250 b 1561 200 1519 250 1549 231 b 1543 111 1574 168 1567 133 l 1478 46 b 1428 11 1464 31 1447 19 b 1368 0 1410 4 1389 0 "},"H":{"ha":1932,"x_min":0,"x_max":0,"o":"m 1579 1067 b 1625 957 1608 1038 1625 999 l 1625 256 b 1613 197 1625 236 1621 215 b 1579 147 1606 178 1594 161 l 1478 44 b 1428 11 1464 31 1447 19 b 1369 0 1410 4 1389 0 l 1369 82 b 1397 88 1379 82 1388 83 b 1421 103 1406 90 1414 96 l 1522 204 b 1531 215 1525 208 1528 211 l 82 215 l 82 154 b 103 103 82 135 89 117 b 154 82 117 89 135 82 l 154 0 b 44 44 113 0 74 17 b 0 154 17 74 0 113 l 0 957 b 44 1067 0 999 17 1038 b 154 1111 74 1094 113 1111 l 154 1029 b 103 1008 135 1029 117 1022 b 82 957 89 994 82 976 l 82 297 l 1543 297 l 1543 957 b 1522 1008 1543 976 1536 994 b 1471 1029 1508 1022 1490 1029 l 1471 1111 b 1579 1067 1513 1111 1551 1094 "},"I":{"ha":1838,"x_min":0,"x_max":0,"o":"m 1538 228 b 1543 256 1542 238 1543 246 l 1625 256 b 1613 197 1625 236 1621 215 b 1579 147 1606 178 1594 161 l 1478 44 b 1428 11 1464 31 1447 19 b 1369 0 1410 4 1389 0 l 154 0 b 44 44 113 0 74 17 b 0 154 17 74 0 113 l 82 154 b 103 103 82 135 89 117 b 154 82 117 89 135 82 l 772 82 l 772 1029 l 154 1029 b 103 1008 135 1029 117 1022 b 82 957 89 994 82 976 l 0 957 b 44 1067 0 999 17 1038 b 154 1111 74 1094 113 1111 l 1471 1111 b 1579 1067 1513 1111 1551 1094 b 1625 957 1608 1038 1625 999 l 1543 957 b 1522 1008 1543 976 1536 994 b 1471 1029 1508 1022 1490 1029 l 853 1029 l 853 82 l 1369 82 b 1397 88 1379 82 1388 83 b 1421 103 1406 90 1414 96 l 1522 204 b 1538 228 1529 211 1535 219 "},"J":{"ha":1933,"x_min":0,"x_max":0,"o":"m 1369 0 l 154 0 b 44 44 113 0 74 17 b 0 154 17 74 0 113 l 82 154 b 103 103 82 135 89 117 b 154 82 117 89 135 82 l 1369 82 b 1397 88 1379 82 1388 83 b 1421 103 1406 90 1414 96 l 1522 204 b 1538 228 1529 211 1535 219 b 1543 256 1542 238 1543 246 l 1543 1111 l 1625 1111 l 1625 256 b 1613 197 1625 236 1621 215 b 1579 147 1606 178 1594 161 l 1478 44 b 1428 11 1464 31 1447 19 b 1369 0 1410 4 1389 0 "},"K":{"ha":1936,"x_min":0,"x_max":0,"o":"m 1636 0 l 1636 0 l 1521 0 l 1353 168 l 82 168 l 82 0 l 0 0 l 0 957 b 44 1067 0 999 17 1038 b 154 1111 74 1094 113 1111 l 154 1029 b 103 1008 135 1029 117 1022 b 82 957 89 994 82 976 l 82 250 l 1369 250 b 1397 256 1379 250 1388 251 b 1421 271 1406 258 1414 264 l 1522 372 b 1538 396 1529 379 1535 388 b 1543 424 1542 406 1543 414 l 1543 1111 l 1625 1111 l 1625 424 b 1613 365 1625 404 1621 383 b 1579 315 1606 346 1594 329 l 1478 214 b 1447 189 1468 204 1458 196 "},"L":{"ha":1701,"x_min":0,"x_max":0,"o":"m 1369 0 l 154 0 b 44 44 113 0 74 17 b 0 154 17 74 0 113 l 0 1111 l 82 1111 l 82 154 b 103 103 82 135 89 117 b 154 82 117 89 135 82 l 1369 82 b 1397 88 1379 82 1388 83 b 1421 103 1406 90 1414 96 l 1522 204 b 1538 228 1529 211 1535 219 b 1543 256 1542 238 1543 246 l 1625 256 b 1613 197 1625 236 1621 215 b 1579 147 1606 178 1594 161 l 1478 44 b 1428 11 1464 31 1447 19 b 1369 0 1410 4 1389 0 "},"M":{"ha":1932,"x_min":0,"x_max":0,"o":"m 1579 1067 b 1625 957 1608 1038 1625 999 l 1625 256 b 1613 197 1625 236 1621 215 b 1579 147 1606 178 1594 161 l 1478 44 b 1428 11 1464 31 1447 19 b 1369 0 1410 4 1389 0 l 1369 82 b 1397 88 1379 82 1388 83 b 1421 103 1406 90 1414 96 l 1522 204 b 1538 228 1529 211 1535 219 b 1543 256 1542 238 1543 246 l 1543 957 b 1522 1008 1543 976 1536 994 b 1471 1029 1508 1022 1490 1029 l 925 1029 b 875 1008 907 1029 888 1022 b 853 957 861 994 853 976 l 853 535 l 772 535 l 772 957 b 750 1008 772 976 764 994 b 699 1029 736 1022 718 1029 l 154 1029 b 103 1008 135 1029 117 1022 b 82 957 89 994 82 976 l 82 154 b 103 103 82 135 89 117 b 154 82 117 89 135 82 l 154 0 b 44 44 113 0 74 17 b 0 154 17 74 0 113 l 0 957 b 44 1067 0 999 17 1038 b 154 1111 74 1094 113 1111 l 699 1111 b 808 1067 740 1111 779 1094 b 813 1061 810 1064 811 1063 b 817 1067 814 1063 815 1064 b 925 1111 846 1094 885 1111 l 1471 1111 b 1579 1067 1513 1111 1551 1094 "},"N":{"ha":1932,"x_min":0,"x_max":0,"o":"m 1369 0 l 1354 0 l 140 1028 b 103 1008 126 1025 114 1019 b 82 957 89 994 82 976 l 82 154 b 103 103 82 135 89 117 b 154 82 117 89 135 82 l 154 0 b 44 44 113 0 74 17 b 0 154 17 74 0 113 l 0 957 b 44 1067 0 999 17 1038 b 154 1111 74 1094 113 1111 l 169 1111 l 1382 83 b 1397 88 1388 83 1392 85 b 1421 103 1406 90 1414 96 l 1522 204 b 1538 228 1529 211 1535 219 b 1543 256 1542 238 1543 246 l 1543 957 b 1522 1008 1543 976 1536 994 b 1471 1029 1508 1022 1490 1029 l 1456 1029 l 1456 1111 l 1471 1111 b 1579 1067 1513 1111 1551 1094 b 1625 957 1608 1038 1625 999 l 1625 256 b 1613 197 1625 236 1621 215 b 1579 147 1606 178 1594 161 l 1478 44 b 1428 11 1464 31 1447 19 b 1369 0 1410 4 1389 0 "},"O":{"ha":1932,"x_min":0,"x_max":0,"o":"m 1369 0 l 154 0 b 44 44 113 0 74 17 b 0 154 17 74 0 113 l 0 957 b 44 1067 0 999 17 1038 b 154 1111 74 1094 113 1111 l 1471 1111 b 1579 1067 1513 1111 1551 1094 b 1625 957 1608 1038 1625 999 l 1625 256 b 1613 197 1625 236 1621 215 b 1579 147 1606 178 1594 161 l 1478 44 b 1428 11 1464 31 1447 19 b 1369 0 1410 4 1389 0 m 154 1029 b 103 1008 135 1029 117 1022 b 82 957 89 994 82 976 l 82 154 b 103 103 82 135 89 117 b 154 82 117 89 135 82 l 1369 82 b 1397 88 1379 82 1388 83 b 1421 103 1406 90 1414 96 l 1522 204 b 1538 228 1529 211 1535 219 b 1543 256 1542 238 1543 246 l 1543 957 b 1522 1008 1543 976 1536 994 b 1471 1029 1508 1022 1490 1029 l 154 1029 "},"P":{"ha":1885,"x_min":0,"x_max":0,"o":"m 82 0 l 0 0 l 0 964 b 44 1067 0 999 17 1038 b 154 1111 74 1094 113 1111 l 1471 1111 b 1579 1067 1513 1111 1551 1094 b 1625 957 1608 1038 1625 999 l 1625 431 b 1613 371 1625 410 1621 390 b 1579 321 1606 353 1594 336 l 1478 219 b 1428 186 1464 206 1447 194 b 1369 175 1410 179 1389 175 l 82 175 l 82 0 m 82 256 l 1369 256 b 1397 261 1379 256 1388 258 b 1421 278 1406 265 1414 271 l 1522 379 b 1538 403 1529 386 1535 394 b 1543 431 1542 411 1543 421 l 1543 957 b 1522 1008 1543 976 1536 994 b 1471 1029 1508 1022 1490 1029 l 154 1029 b 103 1008 135 1029 117 1022 b 82 964 88 994 82 975 l 82 256 "},"Q":{"ha":1979,"x_min":0,"x_max":0,"o":"m 1543 957 b 1522 1008 1543 976 1536 994 b 1471 1029 1508 1022 1490 1029 l 154 1029 b 103 1008 135 1029 117 1022 b 82 957 89 994 82 976 l 82 154 b 103 103 82 135 89 117 b 154 82 117 89 135 82 l 1369 82 b 1397 88 1379 82 1388 83 b 1421 103 1406 90 1414 96 l 1443 125 l 1375 192 l 1433 250 l 1500 182 l 1522 204 b 1538 228 1529 211 1535 219 b 1543 256 1542 238 1543 246 m 1567 0 l 1567 0 l 1500 67 l 1478 44 b 1428 11 1464 31 1447 19 b 1369 0 1410 4 1389 0 l 154 0 b 44 44 113 0 74 17 b 0 154 17 74 0 113 l 0 957 b 44 1067 0 999 17 1038 b 154 1111 74 1094 113 1111 l 1471 1111 b 1579 1067 1513 1111 1551 1094 b 1625 957 1608 1038 1625 999 l 1625 256 b 1613 197 1625 236 1621 215 b 1579 147 1606 178 1594 161 l 1558 125 l 1682 0 "},"R":{"ha":1935,"x_min":0,"x_max":0,"o":"m 1636 0 l 1636 0 l 1636 0 m 1397 256 b 1421 271 1406 258 1414 264 l 1522 372 b 1538 396 1529 379 1535 388 b 1543 424 1542 406 1543 414 l 1543 957 b 1522 1008 1543 976 1536 994 b 1471 1029 1508 1022 1490 1029 l 154 1029 b 103 1008 135 1029 117 1022 b 82 957 89 994 82 976 l 82 250 l 1369 250 b 1397 256 1379 250 1388 251 m 1636 0 l 1521 0 l 1353 168 l 82 168 l 82 0 l 0 0 l 0 957 b 44 1067 0 999 17 1038 b 154 1111 74 1094 113 1111 l 1471 1111 b 1579 1067 1513 1111 1551 1094 b 1625 957 1608 1038 1625 999 l 1625 424 b 1613 365 1625 404 1621 383 b 1579 315 1606 346 1594 329 l 1478 214 b 1447 189 1468 204 1458 196 "},"S":{"ha":1669,"x_min":0,"x_max":0,"o":"m 1368 0 l 154 0 l 154 82 l 1368 82 b 1396 88 1378 82 1388 83 b 1421 103 1406 90 1414 96 l 1471 154 b 1474 163 1474 157 1475 160 b 1465 168 1472 167 1469 168 l 154 168 b 44 214 113 168 74 185 b 0 322 17 242 0 281 l 0 957 b 44 1067 0 999 17 1038 b 154 1111 74 1094 113 1111 l 1485 1111 l 1485 1029 l 154 1029 b 103 1008 135 1029 117 1022 b 82 957 89 994 82 976 l 82 322 b 103 271 82 303 89 285 b 154 250 117 257 135 250 l 1485 250 b 1561 200 1518 250 1549 231 b 1543 111 1574 168 1567 133 l 1478 46 b 1428 11 1464 31 1446 19 b 1368 0 1408 4 1389 0 "},"T":{"ha":1865,"x_min":0,"x_max":0,"o":"m 1640 1064 b 1686 951 1671 1035 1686 994 l 1603 951 b 1581 1004 1603 971 1594 990 b 1526 1026 1565 1018 1547 1026 l 886 1026 l 886 0 l 801 0 l 801 1026 l 160 1026 b 107 1004 140 1026 121 1018 b 85 951 93 990 85 971 l 0 951 b 47 1064 0 994 17 1035 b 160 1111 76 1094 117 1111 l 1526 1111 b 1640 1064 1569 1111 1610 1094 "},"U":{"ha":1936,"x_min":0,"x_max":0,"o":"m 1625 1111 l 1625 0 l 1543 0 l 1543 111 l 1478 44 b 1428 11 1464 31 1447 19 b 1369 0 1410 4 1389 0 l 154 0 b 44 44 113 0 74 17 b 0 154 17 74 0 113 l 0 957 b 44 1067 0 999 17 1038 b 154 1111 74 1094 113 1111 l 154 1029 b 103 1008 135 1029 117 1022 b 82 957 89 994 82 976 l 82 154 b 103 103 82 135 89 117 b 154 82 117 89 135 82 l 1369 82 b 1397 88 1379 82 1388 83 b 1421 103 1406 90 1414 96 l 1522 204 b 1538 228 1529 211 1535 219 b 1543 256 1542 238 1543 246 l 1543 1111 "},"V":{"ha":2004,"x_min":0,"x_max":0,"o":"m 1806 1111 l 1806 1111 l 1806 1111 m 114 1111 l 114 1111 l 114 1111 m 1708 1111 l 1806 1111 l 1146 72 b 1090 19 1132 50 1113 32 b 1015 0 1067 7 1042 0 l 903 0 b 828 19 876 0 851 7 b 772 72 806 32 786 50 l 114 1111 l 210 1111 l 842 115 b 868 90 849 104 857 96 b 903 82 878 85 890 82 l 1015 82 b 1050 90 1028 82 1040 85 b 1076 115 1061 96 1071 104 "},"W":{"ha":1932,"x_min":0,"x_max":0,"o":"m 1579 1067 b 1625 957 1608 1038 1625 999 l 1625 256 b 1613 197 1625 236 1621 215 b 1579 147 1606 178 1594 161 l 1478 44 b 1428 11 1464 31 1447 19 b 1369 0 1410 4 1389 0 l 925 0 b 817 44 885 0 846 17 b 813 50 815 47 814 49 b 808 44 811 49 810 47 b 699 0 779 17 740 0 l 154 0 b 44 44 113 0 74 17 b 0 154 17 74 0 113 l 0 957 b 44 1067 0 999 17 1038 b 154 1111 74 1094 113 1111 l 154 1029 b 103 1008 135 1029 117 1022 b 82 957 89 994 82 976 l 82 154 b 103 103 82 135 89 117 b 154 82 117 89 135 82 l 699 82 b 750 103 718 82 736 89 b 772 154 764 117 772 135 l 772 576 l 853 576 l 853 154 b 875 103 853 135 861 117 b 925 82 888 89 907 82 l 1369 82 b 1397 88 1379 82 1388 83 b 1421 103 1406 90 1414 96 l 1522 204 b 1538 228 1529 211 1535 219 b 1543 256 1542 238 1543 246 l 1543 957 b 1522 1008 1543 976 1536 994 b 1471 1029 1508 1022 1490 1029 l 1471 1111 b 1579 1067 1513 1111 1551 1094 "},"X":{"ha":1872,"x_min":0,"x_max":0,"o":"m 1625 256 b 1613 197 1625 236 1621 215 b 1579 147 1606 178 1594 161 l 1478 44 b 1428 11 1464 31 1447 19 b 1369 0 1410 4 1389 0 l 1354 0 l 1343 10 l 801 468 l 219 0 l 89 0 l 739 522 l 140 1028 b 103 1008 126 1025 114 1019 b 82 957 89 994 82 976 l 0 957 b 44 1067 0 999 17 1038 b 154 1111 74 1094 113 1111 l 169 1111 l 181 1101 l 803 574 l 1472 1111 l 1601 1111 l 867 519 l 1382 83 b 1397 88 1388 83 1392 85 b 1421 103 1406 90 1414 96 l 1522 204 b 1538 228 1529 211 1535 219 b 1543 256 1542 238 1543 246 "},"Y":{"ha":1933,"x_min":0,"x_max":0,"o":"m 1625 1111 l 1625 256 b 1613 197 1625 236 1621 215 b 1579 147 1606 178 1594 161 l 1478 44 b 1428 11 1464 31 1447 19 b 1369 0 1410 4 1389 0 l 813 0 l 813 82 l 1369 82 b 1397 88 1379 82 1388 83 b 1421 103 1406 90 1414 96 l 1522 204 b 1531 215 1525 208 1528 211 l 154 215 b 44 260 113 215 74 231 b 0 369 17 289 0 328 l 0 957 b 44 1067 0 999 17 1038 b 154 1111 74 1094 113 1111 l 154 1029 b 103 1008 135 1029 117 1022 b 82 957 89 994 82 976 l 82 369 b 103 318 82 350 89 332 b 154 297 117 304 135 297 l 1543 297 l 1543 1111 "},"Z":{"ha":1858,"x_min":0,"x_max":0,"o":"m 1369 0 l 154 0 b 44 44 113 0 74 17 b 0 154 17 74 0 113 l 0 179 l 1540 981 b 1522 1008 1536 990 1531 1000 b 1471 1029 1508 1022 1490 1029 l 154 1029 b 103 1008 135 1029 117 1022 b 82 957 89 994 82 976 l 0 957 b 44 1067 0 999 17 1038 b 154 1111 74 1094 113 1111 l 1471 1111 b 1579 1067 1513 1111 1551 1094 b 1625 957 1608 1038 1625 999 l 1625 932 l 85 131 b 103 103 89 121 94 111 b 154 82 117 89 135 82 l 1369 82 b 1397 88 1379 82 1388 83 b 1421 103 1406 90 1414 96 l 1522 204 b 1538 228 1529 211 1535 219 b 1543 256 1542 238 1543 246 l 1625 256 b 1613 197 1625 236 1621 215 b 1579 147 1606 178 1594 161 l 1478 44 b 1428 11 1464 31 1447 19 b 1369 0 1410 4 1389 0 "},"[":{"ha":1389,"x_min":0,"x_max":0,"o":""},"\\":{"ha":1389,"x_min":0,"x_max":0,"o":""},"]":{"ha":1389,"x_min":0,"x_max":0,"o":""},"^":{"ha":1389,"x_min":0,"x_max":0,"o":""},"_":{"ha":1389,"x_min":0,"x_max":0,"o":""},"a":{"ha":2064,"x_min":0,"x_max":0,"o":"m 1565 256 l 1097 996 b 1071 1021 1090 1007 1082 1015 b 1036 1029 1060 1026 1049 1029 l 922 1029 b 888 1021 910 1029 899 1026 b 861 996 876 1015 868 1007 l 392 256 m 1825 0 l 1728 0 l 1618 175 l 340 175 l 229 0 l 133 0 l 793 1039 b 849 1092 807 1061 825 1079 b 922 1111 871 1104 897 1111 l 1036 1111 b 1110 1092 1061 1111 1088 1104 b 1165 1039 1132 1079 1151 1061 "},"b":{"ha":1931,"x_min":0,"x_max":0,"o":"m 1368 0 l 154 0 b 44 44 113 0 74 17 b 0 154 17 74 0 113 l 0 957 b 44 1067 0 999 17 1038 b 154 1111 74 1094 113 1111 l 1471 1111 b 1579 1067 1513 1111 1551 1094 b 1625 957 1608 1038 1625 999 l 1625 424 b 1613 365 1625 404 1621 383 b 1579 315 1606 346 1594 329 l 1511 246 b 1561 200 1533 239 1551 222 b 1543 111 1574 168 1567 133 l 1478 46 b 1428 11 1464 31 1447 19 b 1368 0 1410 4 1389 0 m 82 168 l 82 154 b 103 103 82 135 89 117 b 154 82 117 89 135 82 l 1368 82 b 1397 88 1378 82 1388 83 b 1421 103 1406 90 1414 96 l 1472 154 b 1474 163 1474 157 1475 160 b 1467 168 1472 167 1469 168 l 82 168 m 82 250 l 1369 250 b 1397 256 1379 250 1388 251 b 1421 271 1406 258 1414 264 l 1522 372 b 1538 396 1529 379 1535 388 b 1543 424 1542 406 1543 414 l 1543 957 b 1522 1008 1543 976 1536 994 b 1471 1029 1508 1022 1490 1029 l 154 1029 b 103 1008 135 1029 117 1022 b 82 957 89 994 82 976 l 82 250 "},"c":{"ha":1768,"x_min":0,"x_max":0,"o":"m 1369 0 l 154 0 b 44 44 113 0 74 17 b 0 154 17 74 0 113 l 0 957 b 44 1067 0 999 17 1038 b 154 1111 74 1094 113 1111 l 1486 1111 b 1561 1061 1519 1111 1549 1092 b 1543 972 1574 1031 1567 996 l 1444 874 l 1388 931 l 1472 1015 b 1474 1025 1474 1018 1475 1021 b 1467 1029 1472 1028 1469 1029 l 154 1029 b 103 1008 135 1029 117 1022 b 82 957 89 994 82 976 l 82 154 b 103 103 82 135 89 117 b 154 82 117 89 135 82 l 1369 82 b 1397 88 1379 82 1388 83 b 1421 103 1406 90 1414 96 l 1522 204 b 1538 228 1529 211 1535 219 b 1543 256 1542 238 1543 246 l 1625 256 b 1613 197 1625 236 1621 215 b 1579 147 1606 178 1594 161 l 1478 44 b 1428 11 1464 31 1447 19 b 1369 0 1410 4 1389 0 "},"d":{"ha":1929,"x_min":0,"x_max":0,"o":"m 1369 0 l 154 0 b 44 44 113 0 74 17 b 0 154 17 74 0 113 l 0 957 b 44 1067 0 999 17 1038 b 154 1111 74 1094 113 1111 l 1369 1111 b 1428 1100 1389 1111 1410 1107 b 1478 1067 1447 1092 1464 1081 l 1579 964 b 1613 914 1594 950 1606 933 b 1625 856 1621 896 1625 875 l 1625 256 b 1613 197 1625 236 1621 215 b 1579 147 1606 178 1594 161 l 1478 44 b 1428 11 1464 31 1447 19 b 1369 0 1410 4 1389 0 m 154 1029 b 103 1008 135 1029 117 1022 b 82 957 89 994 82 976 l 82 154 b 103 103 82 135 89 117 b 154 82 117 89 135 82 l 1369 82 b 1397 88 1379 82 1388 83 b 1421 103 1406 90 1414 96 l 1522 204 b 1538 228 1529 211 1535 219 b 1543 256 1542 238 1543 246 l 1543 856 b 1538 883 1543 865 1542 874 b 1522 907 1535 892 1529 900 l 1421 1008 b 1397 1024 1414 1015 1406 1021 b 1369 1029 1388 1028 1379 1029 l 154 1029 "},"e":{"ha":1896,"x_min":0,"x_max":0,"o":"m 813 0 l 156 0 b 46 46 114 0 75 17 b 0 156 17 75 0 114 l 0 956 b 46 1065 0 997 17 1036 b 156 1111 75 1094 114 1111 l 1469 1111 b 1579 1065 1511 1111 1550 1094 b 1625 956 1608 1036 1625 997 l 1625 431 b 1613 371 1625 410 1621 390 b 1579 321 1606 353 1594 336 l 1478 219 b 1428 186 1464 206 1447 194 b 1368 175 1410 179 1389 175 l 82 175 l 82 156 b 103 103 82 135 89 117 b 156 82 117 89 135 82 l 813 82 l 813 0 m 82 256 l 1368 256 b 1397 261 1378 256 1388 258 b 1421 278 1406 265 1414 271 l 1522 379 b 1538 403 1529 386 1535 393 b 1543 431 1542 411 1543 421 l 1543 956 b 1522 1008 1543 976 1536 994 b 1469 1029 1508 1022 1490 1029 l 156 1029 b 103 1008 135 1029 117 1022 b 82 956 89 994 82 976 l 82 256 "},"f":{"ha":1678,"x_min":0,"x_max":0,"o":"m 1561 1061 b 1543 972 1574 1031 1567 996 l 1444 874 l 1388 931 l 1472 1015 b 1474 1025 1474 1018 1475 1021 b 1467 1029 1472 1028 1469 1029 l 154 1029 b 103 1008 135 1029 117 1022 b 82 957 89 994 82 976 l 82 256 l 597 256 b 625 261 607 256 617 258 b 649 278 633 265 642 271 l 750 379 b 767 403 757 386 763 394 b 772 431 769 411 772 421 l 853 431 b 842 371 853 410 849 390 b 808 321 833 353 822 336 l 707 219 b 657 186 692 206 675 194 b 597 175 638 179 618 175 l 82 175 l 82 0 l 0 0 l 0 957 b 44 1067 0 999 17 1038 b 154 1111 74 1094 113 1111 l 1486 1111 b 1561 1061 1519 1111 1549 1092 "},"g":{"ha":1713,"x_min":0,"x_max":0,"o":"m 1368 0 l 154 0 b 44 44 113 0 74 17 b 0 154 17 74 0 113 l 0 957 b 44 1067 0 999 17 1038 b 154 1111 74 1094 113 1111 l 1486 1111 b 1561 1061 1519 1111 1549 1092 b 1543 972 1574 1031 1567 996 l 1444 874 l 1388 931 l 1472 1015 b 1474 1025 1474 1018 1475 1021 b 1467 1029 1472 1028 1469 1029 l 154 1029 b 103 1008 135 1029 117 1022 b 82 957 89 994 82 976 l 82 154 b 103 103 82 135 89 117 b 154 82 117 89 135 82 l 1368 82 b 1397 88 1378 82 1388 83 b 1421 103 1406 90 1414 96 l 1486 168 l 813 168 l 813 250 l 1486 250 b 1561 200 1519 250 1549 231 b 1543 111 1574 168 1567 133 l 1478 46 b 1428 11 1464 31 1447 19 b 1368 0 1410 4 1389 0 "},"h":{"ha":1932,"x_min":0,"x_max":0,"o":"m 1579 1067 b 1625 957 1608 1038 1625 999 l 1625 256 b 1613 197 1625 236 1621 215 b 1579 147 1606 178 1594 161 l 1478 44 b 1428 11 1464 31 1447 19 b 1369 0 1410 4 1389 0 l 1369 82 b 1397 88 1379 82 1388 83 b 1421 103 1406 90 1414 96 l 1522 204 b 1531 215 1525 208 1528 211 l 82 215 l 82 154 b 103 103 82 135 89 117 b 154 82 117 89 135 82 l 154 0 b 44 44 113 0 74 17 b 0 154 17 74 0 113 l 0 957 b 44 1067 0 999 17 1038 b 154 1111 74 1094 113 1111 l 154 1029 b 103 1008 135 1029 117 1022 b 82 957 89 994 82 976 l 82 297 l 1543 297 l 1543 957 b 1522 1008 1543 976 1536 994 b 1471 1029 1508 1022 1490 1029 l 1471 1111 b 1579 1067 1513 1111 1551 1094 "},"i":{"ha":1838,"x_min":0,"x_max":0,"o":"m 1538 228 b 1543 256 1542 238 1543 246 l 1625 256 b 1613 197 1625 236 1621 215 b 1579 147 1606 178 1594 161 l 1478 44 b 1428 11 1464 31 1447 19 b 1369 0 1410 4 1389 0 l 154 0 b 44 44 113 0 74 17 b 0 154 17 74 0 113 l 82 154 b 103 103 82 135 89 117 b 154 82 117 89 135 82 l 772 82 l 772 1029 l 154 1029 b 103 1008 135 1029 117 1022 b 82 957 89 994 82 976 l 0 957 b 44 1067 0 999 17 1038 b 154 1111 74 1094 113 1111 l 1471 1111 b 1579 1067 1513 1111 1551 1094 b 1625 957 1608 1038 1625 999 l 1543 957 b 1522 1008 1543 976 1536 994 b 1471 1029 1508 1022 1490 1029 l 853 1029 l 853 82 l 1369 82 b 1397 88 1379 82 1388 83 b 1421 103 1406 90 1414 96 l 1522 204 b 1538 228 1529 211 1535 219 "},"j":{"ha":1933,"x_min":0,"x_max":0,"o":"m 1369 0 l 154 0 b 44 44 113 0 74 17 b 0 154 17 74 0 113 l 82 154 b 103 103 82 135 89 117 b 154 82 117 89 135 82 l 1369 82 b 1397 88 1379 82 1388 83 b 1421 103 1406 90 1414 96 l 1522 204 b 1538 228 1529 211 1535 219 b 1543 256 1542 238 1543 246 l 1543 1111 l 1625 1111 l 1625 256 b 1613 197 1625 236 1621 215 b 1579 147 1606 178 1594 161 l 1478 44 b 1428 11 1464 31 1447 19 b 1369 0 1410 4 1389 0 "},"k":{"ha":1936,"x_min":0,"x_max":0,"o":"m 1636 0 l 1636 0 l 1521 0 l 1353 168 l 82 168 l 82 0 l 0 0 l 0 957 b 44 1067 0 999 17 1038 b 154 1111 74 1094 113 1111 l 154 1029 b 103 1008 135 1029 117 1022 b 82 957 89 994 82 976 l 82 250 l 1369 250 b 1397 256 1379 250 1388 251 b 1421 271 1406 258 1414 264 l 1522 372 b 1538 396 1529 379 1535 388 b 1543 424 1542 406 1543 414 l 1543 1111 l 1625 1111 l 1625 424 b 1613 365 1625 404 1621 383 b 1579 315 1606 346 1594 329 l 1478 214 b 1447 189 1468 204 1458 196 "},"l":{"ha":1701,"x_min":0,"x_max":0,"o":"m 1369 0 l 154 0 b 44 44 113 0 74 17 b 0 154 17 74 0 113 l 0 1111 l 82 1111 l 82 154 b 103 103 82 135 89 117 b 154 82 117 89 135 82 l 1369 82 b 1397 88 1379 82 1388 83 b 1421 103 1406 90 1414 96 l 1522 204 b 1538 228 1529 211 1535 219 b 1543 256 1542 238 1543 246 l 1625 256 b 1613 197 1625 236 1621 215 b 1579 147 1606 178 1594 161 l 1478 44 b 1428 11 1464 31 1447 19 b 1369 0 1410 4 1389 0 "},"m":{"ha":1932,"x_min":0,"x_max":0,"o":"m 1579 1067 b 1625 957 1608 1038 1625 999 l 1625 256 b 1613 197 1625 236 1621 215 b 1579 147 1606 178 1594 161 l 1478 44 b 1428 11 1464 31 1447 19 b 1369 0 1410 4 1389 0 l 1369 82 b 1397 88 1379 82 1388 83 b 1421 103 1406 90 1414 96 l 1522 204 b 1538 228 1529 211 1535 219 b 1543 256 1542 238 1543 246 l 1543 957 b 1522 1008 1543 976 1536 994 b 1471 1029 1508 1022 1490 1029 l 925 1029 b 875 1008 907 1029 888 1022 b 853 957 861 994 853 976 l 853 535 l 772 535 l 772 957 b 750 1008 772 976 764 994 b 699 1029 736 1022 718 1029 l 154 1029 b 103 1008 135 1029 117 1022 b 82 957 89 994 82 976 l 82 154 b 103 103 82 135 89 117 b 154 82 117 89 135 82 l 154 0 b 44 44 113 0 74 17 b 0 154 17 74 0 113 l 0 957 b 44 1067 0 999 17 1038 b 154 1111 74 1094 113 1111 l 699 1111 b 808 1067 740 1111 779 1094 b 813 1061 810 1064 811 1063 b 817 1067 814 1063 815 1064 b 925 1111 846 1094 885 1111 l 1471 1111 b 1579 1067 1513 1111 1551 1094 "},"n":{"ha":1932,"x_min":0,"x_max":0,"o":"m 1369 0 l 1354 0 l 140 1028 b 103 1008 126 1025 114 1019 b 82 957 89 994 82 976 l 82 154 b 103 103 82 135 89 117 b 154 82 117 89 135 82 l 154 0 b 44 44 113 0 74 17 b 0 154 17 74 0 113 l 0 957 b 44 1067 0 999 17 1038 b 154 1111 74 1094 113 1111 l 169 1111 l 1382 83 b 1397 88 1388 83 1392 85 b 1421 103 1406 90 1414 96 l 1522 204 b 1538 228 1529 211 1535 219 b 1543 256 1542 238 1543 246 l 1543 957 b 1522 1008 1543 976 1536 994 b 1471 1029 1508 1022 1490 1029 l 1456 1029 l 1456 1111 l 1471 1111 b 1579 1067 1513 1111 1551 1094 b 1625 957 1608 1038 1625 999 l 1625 256 b 1613 197 1625 236 1621 215 b 1579 147 1606 178 1594 161 l 1478 44 b 1428 11 1464 31 1447 19 b 1369 0 1410 4 1389 0 "},"o":{"ha":1932,"x_min":0,"x_max":0,"o":"m 1369 0 l 154 0 b 44 44 113 0 74 17 b 0 154 17 74 0 113 l 0 957 b 44 1067 0 999 17 1038 b 154 1111 74 1094 113 1111 l 1471 1111 b 1579 1067 1513 1111 1551 1094 b 1625 957 1608 1038 1625 999 l 1625 256 b 1613 197 1625 236 1621 215 b 1579 147 1606 178 1594 161 l 1478 44 b 1428 11 1464 31 1447 19 b 1369 0 1410 4 1389 0 m 154 1029 b 103 1008 135 1029 117 1022 b 82 957 89 994 82 976 l 82 154 b 103 103 82 135 89 117 b 154 82 117 89 135 82 l 1369 82 b 1397 88 1379 82 1388 83 b 1421 103 1406 90 1414 96 l 1522 204 b 1538 228 1529 211 1535 219 b 1543 256 1542 238 1543 246 l 1543 957 b 1522 1008 1543 976 1536 994 b 1471 1029 1508 1022 1490 1029 l 154 1029 "},"p":{"ha":1885,"x_min":0,"x_max":0,"o":"m 82 0 l 0 0 l 0 964 b 44 1067 0 999 17 1038 b 154 1111 74 1094 113 1111 l 1471 1111 b 1579 1067 1513 1111 1551 1094 b 1625 957 1608 1038 1625 999 l 1625 431 b 1613 371 1625 410 1621 390 b 1579 321 1606 353 1594 336 l 1478 219 b 1428 186 1464 206 1447 194 b 1369 175 1410 179 1389 175 l 82 175 l 82 0 m 82 256 l 1369 256 b 1397 261 1379 256 1388 258 b 1421 278 1406 265 1414 271 l 1522 379 b 1538 403 1529 386 1535 394 b 1543 431 1542 411 1543 421 l 1543 957 b 1522 1008 1543 976 1536 994 b 1471 1029 1508 1022 1490 1029 l 154 1029 b 103 1008 135 1029 117 1022 b 82 964 88 994 82 975 l 82 256 "},"q":{"ha":1979,"x_min":0,"x_max":0,"o":"m 1543 957 b 1522 1008 1543 976 1536 994 b 1471 1029 1508 1022 1490 1029 l 154 1029 b 103 1008 135 1029 117 1022 b 82 957 89 994 82 976 l 82 154 b 103 103 82 135 89 117 b 154 82 117 89 135 82 l 1369 82 b 1397 88 1379 82 1388 83 b 1421 103 1406 90 1414 96 l 1443 125 l 1375 192 l 1433 250 l 1500 182 l 1522 204 b 1538 228 1529 211 1535 219 b 1543 256 1542 238 1543 246 m 1567 0 l 1567 0 l 1500 67 l 1478 44 b 1428 11 1464 31 1447 19 b 1369 0 1410 4 1389 0 l 154 0 b 44 44 113 0 74 17 b 0 154 17 74 0 113 l 0 957 b 44 1067 0 999 17 1038 b 154 1111 74 1094 113 1111 l 1471 1111 b 1579 1067 1513 1111 1551 1094 b 1625 957 1608 1038 1625 999 l 1625 256 b 1613 197 1625 236 1621 215 b 1579 147 1606 178 1594 161 l 1558 125 l 1682 0 "},"r":{"ha":1935,"x_min":0,"x_max":0,"o":"m 1636 0 l 1636 0 l 1636 0 m 1397 256 b 1421 271 1406 258 1414 264 l 1522 372 b 1538 396 1529 379 1535 388 b 1543 424 1542 406 1543 414 l 1543 957 b 1522 1008 1543 976 1536 994 b 1471 1029 1508 1022 1490 1029 l 154 1029 b 103 1008 135 1029 117 1022 b 82 957 89 994 82 976 l 82 250 l 1369 250 b 1397 256 1379 250 1388 251 m 1636 0 l 1521 0 l 1353 168 l 82 168 l 82 0 l 0 0 l 0 957 b 44 1067 0 999 17 1038 b 154 1111 74 1094 113 1111 l 1471 1111 b 1579 1067 1513 1111 1551 1094 b 1625 957 1608 1038 1625 999 l 1625 424 b 1613 365 1625 404 1621 383 b 1579 315 1606 346 1594 329 l 1478 214 b 1447 189 1468 204 1458 196 "},"s":{"ha":1669,"x_min":0,"x_max":0,"o":"m 1368 0 l 154 0 l 154 82 l 1368 82 b 1396 88 1378 82 1388 83 b 1421 103 1406 90 1414 96 l 1471 154 b 1474 163 1474 157 1475 160 b 1465 168 1472 167 1469 168 l 154 168 b 44 214 113 168 74 185 b 0 322 17 242 0 281 l 0 957 b 44 1067 0 999 17 1038 b 154 1111 74 1094 113 1111 l 1485 1111 l 1485 1029 l 154 1029 b 103 1008 135 1029 117 1022 b 82 957 89 994 82 976 l 82 322 b 103 271 82 303 89 285 b 154 250 117 257 135 250 l 1485 250 b 1561 200 1518 250 1549 231 b 1543 111 1574 168 1567 133 l 1478 46 b 1428 11 1464 31 1446 19 b 1368 0 1408 4 1389 0 "},"t":{"ha":1865,"x_min":0,"x_max":0,"o":"m 1640 1064 b 1686 951 1671 1035 1686 994 l 1603 951 b 1581 1004 1603 971 1594 990 b 1526 1026 1565 1018 1547 1026 l 886 1026 l 886 0 l 801 0 l 801 1026 l 160 1026 b 107 1004 140 1026 121 1018 b 85 951 93 990 85 971 l 0 951 b 47 1064 0 994 17 1035 b 160 1111 76 1094 117 1111 l 1526 1111 b 1640 1064 1569 1111 1610 1094 "},"u":{"ha":1936,"x_min":0,"x_max":0,"o":"m 1625 1111 l 1625 0 l 1543 0 l 1543 111 l 1478 44 b 1428 11 1464 31 1447 19 b 1369 0 1410 4 1389 0 l 154 0 b 44 44 113 0 74 17 b 0 154 17 74 0 113 l 0 957 b 44 1067 0 999 17 1038 b 154 1111 74 1094 113 1111 l 154 1029 b 103 1008 135 1029 117 1022 b 82 957 89 994 82 976 l 82 154 b 103 103 82 135 89 117 b 154 82 117 89 135 82 l 1369 82 b 1397 88 1379 82 1388 83 b 1421 103 1406 90 1414 96 l 1522 204 b 1538 228 1529 211 1535 219 b 1543 256 1542 238 1543 246 l 1543 1111 "},"v":{"ha":2004,"x_min":0,"x_max":0,"o":"m 1806 1111 l 1806 1111 l 1806 1111 m 114 1111 l 114 1111 l 114 1111 m 1708 1111 l 1806 1111 l 1146 72 b 1090 19 1132 50 1113 32 b 1015 0 1067 7 1042 0 l 903 0 b 828 19 876 0 851 7 b 772 72 806 32 786 50 l 114 1111 l 210 1111 l 842 115 b 868 90 849 104 857 96 b 903 82 878 85 890 82 l 1015 82 b 1050 90 1028 82 1040 85 b 1076 115 1061 96 1071 104 "},"w":{"ha":1932,"x_min":0,"x_max":0,"o":"m 1579 1067 b 1625 957 1608 1038 1625 999 l 1625 256 b 1613 197 1625 236 1621 215 b 1579 147 1606 178 1594 161 l 1478 44 b 1428 11 1464 31 1447 19 b 1369 0 1410 4 1389 0 l 925 0 b 817 44 885 0 846 17 b 813 50 815 47 814 49 b 808 44 811 49 810 47 b 699 0 779 17 740 0 l 154 0 b 44 44 113 0 74 17 b 0 154 17 74 0 113 l 0 957 b 44 1067 0 999 17 1038 b 154 1111 74 1094 113 1111 l 154 1029 b 103 1008 135 1029 117 1022 b 82 957 89 994 82 976 l 82 154 b 103 103 82 135 89 117 b 154 82 117 89 135 82 l 699 82 b 750 103 718 82 736 89 b 772 154 764 117 772 135 l 772 576 l 853 576 l 853 154 b 875 103 853 135 861 117 b 925 82 888 89 907 82 l 1369 82 b 1397 88 1379 82 1388 83 b 1421 103 1406 90 1414 96 l 1522 204 b 1538 228 1529 211 1535 219 b 1543 256 1542 238 1543 246 l 1543 957 b 1522 1008 1543 976 1536 994 b 1471 1029 1508 1022 1490 1029 l 1471 1111 b 1579 1067 1513 1111 1551 1094 "},"x":{"ha":1872,"x_min":0,"x_max":0,"o":"m 1625 256 b 1613 197 1625 236 1621 215 b 1579 147 1606 178 1594 161 l 1478 44 b 1428 11 1464 31 1447 19 b 1369 0 1410 4 1389 0 l 1354 0 l 1343 10 l 801 468 l 219 0 l 89 0 l 739 522 l 140 1028 b 103 1008 126 1025 114 1019 b 82 957 89 994 82 976 l 0 957 b 44 1067 0 999 17 1038 b 154 1111 74 1094 113 1111 l 169 1111 l 181 1101 l 803 574 l 1472 1111 l 1601 1111 l 867 519 l 1382 83 b 1397 88 1388 83 1392 85 b 1421 103 1406 90 1414 96 l 1522 204 b 1538 228 1529 211 1535 219 b 1543 256 1542 238 1543 246 "},"y":{"ha":1933,"x_min":0,"x_max":0,"o":"m 1625 1111 l 1625 256 b 1613 197 1625 236 1621 215 b 1579 147 1606 178 1594 161 l 1478 44 b 1428 11 1464 31 1447 19 b 1369 0 1410 4 1389 0 l 813 0 l 813 82 l 1369 82 b 1397 88 1379 82 1388 83 b 1421 103 1406 90 1414 96 l 1522 204 b 1531 215 1525 208 1528 211 l 154 215 b 44 260 113 215 74 231 b 0 369 17 289 0 328 l 0 957 b 44 1067 0 999 17 1038 b 154 1111 74 1094 113 1111 l 154 1029 b 103 1008 135 1029 117 1022 b 82 957 89 994 82 976 l 82 369 b 103 318 82 350 89 332 b 154 297 117 304 135 297 l 1543 297 l 1543 1111 "},"z":{"ha":1858,"x_min":0,"x_max":0,"o":"m 1369 0 l 154 0 b 44 44 113 0 74 17 b 0 154 17 74 0 113 l 0 179 l 1540 981 b 1522 1008 1536 990 1531 1000 b 1471 1029 1508 1022 1490 1029 l 154 1029 b 103 1008 135 1029 117 1022 b 82 957 89 994 82 976 l 0 957 b 44 1067 0 999 17 1038 b 154 1111 74 1094 113 1111 l 1471 1111 b 1579 1067 1513 1111 1551 1094 b 1625 957 1608 1038 1625 999 l 1625 932 l 85 131 b 103 103 89 121 94 111 b 154 82 117 89 135 82 l 1369 82 b 1397 88 1379 82 1388 83 b 1421 103 1406 90 1414 96 l 1522 204 b 1538 228 1529 211 1535 219 b 1543 256 1542 238 1543 246 l 1625 256 b 1613 197 1625 236 1621 215 b 1579 147 1606 178 1594 161 l 1478 44 b 1428 11 1464 31 1447 19 b 1369 0 1410 4 1389 0 "},"{":{"ha":1389,"x_min":0,"x_max":0,"o":""},"|":{"ha":1389,"x_min":0,"x_max":0,"o":""},"}":{"ha":1389,"x_min":0,"x_max":0,"o":""},"~":{"ha":1389,"x_min":0,"x_max":0,"o":""},"'":{"ha":1389,"x_min":0,"x_max":0,"o":""},"":{"ha":1389,"x_min":0,"x_max":0,"o":""},"`":{"ha":1389,"x_min":0,"x_max":0,"o":""}}}
